{
	"asset":{
		"generator":"Khronos glTF Blender I/O v4.4.56",
		"version":"2.0"
	},
	"extensionsUsed":[
		"KHR_materials_emissive_strength",
		"KHR_materials_specular"
	],
	"scene":0,
	"scenes":[
		{
			"name":"Scene",
			"nodes":[
				0,
				1,
				2,
				3,
				4,
				5,
				6,
				7,
				8,
				9,
				10,
				11,
				12,
				13,
				14,
				15,
				16,
				17,
				18,
				19,
				20,
				21,
				22,
				23,
				24,
				25,
				26,
				27,
				28,
				29,
				30,
				31,
				32,
				33,
				34,
				35,
				36,
				37,
				38,
				39,
				40,
				41,
				42,
				43,
				44,
				45,
				46,
				47,
				48
			]
		}
	],
	"nodes":[
		{
			"mesh":0,
			"name":"Plane.015",
			"translation":[
				0,
				0.42400792241096497,
				0
			]
		},
		{
			"mesh":1,
			"name":"Plane.017",
			"translation":[
				0,
				4.614038944244385,
				4.994050979614258
			]
		},
		{
			"mesh":2,
			"name":"Plane.019",
			"translation":[
				0,
				0.42400792241096497,
				0
			]
		},
		{
			"mesh":3,
			"name":"Plane.020",
			"translation":[
				0,
				0.42400792241096497,
				0
			]
		},
		{
			"mesh":4,
			"name":"Plane.021",
			"translation":[
				0,
				0.42400792241096497,
				0
			]
		},
		{
			"mesh":5,
			"name":"Plane.022",
			"translation":[
				0,
				0.42400792241096497,
				0
			]
		},
		{
			"mesh":6,
			"name":"Plane.023",
			"translation":[
				0,
				0.42400792241096497,
				0
			]
		},
		{
			"mesh":7,
			"name":"Plane.024"
		},
		{
			"mesh":8,
			"name":"Plane.025",
			"scale":[
				14.74577808380127,
				14.74577808380127,
				14.74577808380127
			]
		},
		{
			"mesh":9,
			"name":"Plane.026",
			"translation":[
				0,
				0.42400792241096497,
				0
			]
		},
		{
			"mesh":10,
			"name":"Plane.027"
		},
		{
			"mesh":11,
			"name":"b:Engine_Geo_lodA_Engine_Geo_lodA_BMW_M4CompetitionG82T_7a2.001",
			"rotation":[
				0.70710688829422,
				0,
				0,
				0.7071066498756409
			],
			"scale":[
				4.821981906890869,
				4.821982383728027,
				4.821982383728027
			],
			"translation":[
				0,
				0.4436694085597992,
				0
			]
		},
		{
			"mesh":12,
			"name":"b:Hood0a_Coloured_Geo_lodA_Hood0a_Coloured_Geo_lodA_BMW_b4f.001",
			"rotation":[
				0.70710688829422,
				0,
				0,
				0.7071066498756409
			],
			"scale":[
				4.821981906890869,
				4.821982383728027,
				4.821982383728027
			],
			"translation":[
				0,
				0.4436694085597992,
				0
			]
		},
		{
			"mesh":13,
			"name":"b:Kit0_Carbon1_Geo_lodA_Kit0_Carbon1_Geo_lodA_BMW_M4Com_d5d.001",
			"rotation":[
				0.70710688829422,
				0,
				0,
				0.7071066498756409
			],
			"scale":[
				4.821981906890869,
				4.821982383728027,
				4.821982383728027
			],
			"translation":[
				0,
				0.4436694085597992,
				0
			]
		},
		{
			"mesh":14,
			"name":"b:GrilleNoAlpha5_Geo_lodA_GrilleNoAlpha5_Geo_lodA_BMW_M_5d6.001",
			"rotation":[
				0.70710688829422,
				0,
				0,
				0.7071066498756409
			],
			"scale":[
				4.821981906890869,
				4.821982383728027,
				4.821982383728027
			],
			"translation":[
				0,
				0.4436694085597992,
				0
			]
		},
		{
			"mesh":15,
			"name":"b:GrilleNoAlpha9_Geo_lodA_GrilleNoAlpha9_Geo_lodA_BMW_M_2cd.001",
			"rotation":[
				0.70710688829422,
				0,
				0,
				0.7071066498756409
			],
			"scale":[
				4.821981906890869,
				4.821982383728027,
				4.821982383728027
			],
			"translation":[
				0,
				0.4436694085597992,
				0
			]
		},
		{
			"mesh":16,
			"name":"b:Interior_Geo_lodA_Interior_Geo_lodA_BMW_M4Competition_cd6.001",
			"rotation":[
				0.70710688829422,
				0,
				0,
				0.7071066498756409
			],
			"scale":[
				4.821981906890869,
				4.821982383728027,
				4.821982383728027
			],
			"translation":[
				0,
				0.4436694085597992,
				0
			]
		},
		{
			"mesh":17,
			"name":"b:Wing0a_Coloured_Geo_lodA_Wing0a_Coloured_Geo_lodA_BMW_cc4.001",
			"rotation":[
				0.70710688829422,
				0,
				0,
				0.7071066498756409
			],
			"scale":[
				4.821981906890869,
				4.821982383728027,
				4.821982383728027
			],
			"translation":[
				0,
				0.44632869958877563,
				0
			]
		},
		{
			"mesh":18,
			"name":"b:Wing0a_Paint_Geo_lodA_Wing0a_Paint_Geo_lodA_BMW_M4Com_95f.001",
			"rotation":[
				0.70710688829422,
				0,
				0,
				0.7071066498756409
			],
			"scale":[
				4.821981906890869,
				4.821982383728027,
				4.821982383728027
			],
			"translation":[
				0,
				0.44632869958877563,
				0
			]
		},
		{
			"mesh":19,
			"name":"b:GrilleNoAlpha6_Geo_lodA_GrilleNoAlpha6_Geo_lodA_BMW_M_233.001",
			"rotation":[
				0.70710688829422,
				0,
				0,
				0.7071066498756409
			],
			"scale":[
				4.821981906890869,
				4.821982383728027,
				4.821982383728027
			],
			"translation":[
				0,
				0.44632869958877563,
				0
			]
		},
		{
			"mesh":20,
			"name":"b:GrilleNoAlpha7_Geo_lodA_GrilleNoAlpha7_Geo_lodA_BMW_M_fa7.001",
			"rotation":[
				0.70710688829422,
				0,
				0,
				0.7071066498756409
			],
			"scale":[
				4.821981906890869,
				4.821982383728027,
				4.821982383728027
			],
			"translation":[
				0,
				0.44632869958877563,
				0
			]
		},
		{
			"mesh":21,
			"name":"b:GrilleNoAlpha8_Geo_lodA_GrilleNoAlpha8_Geo_lodA_BMW_M_c5f.001",
			"rotation":[
				0.70710688829422,
				0,
				0,
				0.7071066498756409
			],
			"scale":[
				4.821981906890869,
				4.821982383728027,
				4.821982383728027
			],
			"translation":[
				0,
				0.44632869958877563,
				0
			]
		},
		{
			"mesh":22,
			"name":"b:Kit0_Badge_Geo_lodA_Kit0_Badge_Geo_lodA_BMW_M4Competi_bf0.003",
			"rotation":[
				0.70710688829422,
				0,
				0,
				0.7071066498756409
			],
			"scale":[
				4.821981906890869,
				4.821982383728027,
				4.821982383728027
			],
			"translation":[
				0,
				0.44632869958877563,
				0
			]
		},
		{
			"mesh":23,
			"name":"b:Kit0_Base_Geo_lodA_Kit0_Base_Geo_lodA_BMW_M4Competiti_144.002",
			"rotation":[
				0.70710688829422,
				0,
				0,
				0.7071066498756409
			],
			"scale":[
				4.821981906890869,
				4.821982383728027,
				4.821982383728027
			],
			"translation":[
				0,
				0.44632869958877563,
				0
			]
		},
		{
			"mesh":24,
			"name":"b:Kit0_Coloured_Geo_lodA_Kit0_Coloured_Geo_lodA_BMW_M4C_a0b.001",
			"rotation":[
				0.70710688829422,
				0,
				0,
				0.7071066498756409
			],
			"scale":[
				4.821981906890869,
				4.821982383728027,
				4.821982383728027
			],
			"translation":[
				0,
				0.44632869958877563,
				0
			]
		},
		{
			"mesh":25,
			"name":"b:Kit0_Light_Geo_lodA_Kit0_Light_Geo_lodA_BMW_M4Competi_a2f.001",
			"rotation":[
				0.70710688829422,
				0,
				0,
				0.7071066498756409
			],
			"scale":[
				4.821981906890869,
				4.821982383728027,
				4.821982383728027
			],
			"translation":[
				0,
				0.44632869958877563,
				0
			]
		},
		{
			"mesh":26,
			"name":"b:Kit0_ManufacturerPlate_Geo_lodA_Kit0_ManufacturerPlat_b8a.001",
			"rotation":[
				0.70710688829422,
				0,
				0,
				0.7071066498756409
			],
			"scale":[
				4.821981906890869,
				4.821982383728027,
				4.821982383728027
			],
			"translation":[
				0,
				0.44632869958877563,
				0
			]
		},
		{
			"mesh":27,
			"name":"b:Kit0_Paint_Geo_lodA_Kit0_Paint_Geo_lodA_BMW_M4Competi_f24.001",
			"rotation":[
				0.70710688829422,
				0,
				0,
				0.7071066498756409
			],
			"scale":[
				4.821981906890869,
				4.821982383728027,
				4.821982383728027
			],
			"translation":[
				0,
				0.44632869958877563,
				0
			]
		},
		{
			"mesh":28,
			"name":"b:Kit0_Window_Geo_lodA_Kit0_Window_Geo_lodA_BMW_M4Compe_252.001",
			"rotation":[
				0.70710688829422,
				0,
				0,
				0.7071066498756409
			],
			"scale":[
				4.821981906890869,
				4.821982383728027,
				4.821982383728027
			],
			"translation":[
				0,
				0.44632869958877563,
				0
			]
		},
		{
			"mesh":29,
			"name":"b:SeatBelt_Geo_lodA_SeatBelt_Geo_lodA_BMW_M4Competition_96a.001",
			"rotation":[
				0.70710688829422,
				0,
				0,
				0.7071066498756409
			],
			"scale":[
				4.821981906890869,
				4.821982383728027,
				4.821982383728027
			],
			"translation":[
				0,
				0.44632869958877563,
				0
			]
		},
		{
			"mesh":30,
			"name":"b:Kit0_Light_Geo_lodA_Kit0_Light_Geo_lodA_BMW_M4Competi_a2f.003",
			"rotation":[
				0.70710688829422,
				0,
				0,
				0.7071066498756409
			],
			"scale":[
				4.821981906890869,
				4.821982383728027,
				4.821982383728027
			],
			"translation":[
				0,
				0.44632869958877563,
				0
			]
		},
		{
			"mesh":31,
			"name":"b:Kit0_Badge_Geo_lodA_Kit0_Badge_Geo_lodA_BMW_M4Competi_bf0.004",
			"rotation":[
				0.70710688829422,
				0,
				0,
				0.7071066498756409
			],
			"scale":[
				4.821981906890869,
				4.821982383728027,
				4.821982383728027
			],
			"translation":[
				0,
				0.44632869958877563,
				0
			]
		},
		{
			"mesh":32,
			"name":"Cylinder.002",
			"translation":[
				0,
				0.42400792241096497,
				0
			]
		},
		{
			"mesh":33,
			"name":"Cylinder.003",
			"translation":[
				0,
				0.17734786868095398,
				0
			]
		},
		{
			"mesh":34,
			"name":"Cylinder.004",
			"translation":[
				0,
				0.17162159085273743,
				0
			]
		},
		{
			"mesh":35,
			"name":"Cylinder.005",
			"translation":[
				0,
				0.17162159085273743,
				0
			]
		},
		{
			"mesh":36,
			"name":"Cylinder.006",
			"translation":[
				0,
				0.17162159085273743,
				0
			]
		},
		{
			"mesh":37,
			"name":"Cylinder.007",
			"translation":[
				0,
				0.42400792241096497,
				0
			]
		},
		{
			"mesh":38,
			"name":"Plane.028",
			"translation":[
				0,
				0.42400792241096497,
				0
			]
		},
		{
			"mesh":39,
			"name":"Cylinder.008",
			"translation":[
				0,
				0.17734786868095398,
				0
			]
		},
		{
			"mesh":40,
			"name":"Plane.029",
			"translation":[
				0,
				0.42400792241096497,
				0
			]
		},
		{
			"mesh":41,
			"name":"Plane.030",
			"translation":[
				0,
				0.42400792241096497,
				0
			]
		},
		{
			"mesh":42,
			"name":"Cylinder.009",
			"rotation":[
				0,
				-0.9577246904373169,
				0.28768640756607056,
				4.18634691357056e-08
			],
			"scale":[
				0.5533339381217957,
				0.5533338189125061,
				0.5533339381217957
			]
		},
		{
			"mesh":43,
			"name":"Circle.001"
		},
		{
			"mesh":44,
			"name":"Circle.004"
		},
		{
			"mesh":45,
			"name":"Plane.031",
			"translation":[
				0,
				0.42400792241096497,
				0
			]
		},
		{
			"mesh":46,
			"name":"Cylinder.010",
			"translation":[
				0,
				0.42400792241096497,
				0
			]
		},
		{
			"mesh":47,
			"name":"Cylinder.011",
			"rotation":[
				0,
				-0.9577246904373169,
				0.28768640756607056,
				4.18634691357056e-08
			],
			"scale":[
				0.5533339381217957,
				0.5533338189125061,
				0.5533339381217957
			],
			"translation":[
				0,
				0,
				-13.784485816955566
			]
		},
		{
			"mesh":48,
			"name":"Plane.032"
		}
	],
	"materials":[
		{
			"doubleSided":true,
			"extensions":{
				"KHR_materials_specular":{
					"specularColorFactor":[
						2.0,
						2.0,
						2.0
					]
				}
			},
			"name":"b:BMW_M4CompetitionG82TNR0_2021PaintTNR_Material_004",
			"pbrMetallicRoughness":{
				"baseColorFactor":[
					0.0020630971994251013,
					0.04742344841361046,
					0.04697984457015991,
					1
				],
				"metallicFactor":0.6651380062103271,
				"roughnessFactor":0.20000000298023224
			}
		},
		{
			"doubleSided":true,
			"extensions":{
				"KHR_materials_specular":{
					"specularColorFactor":[
						2.0,
						2.0,
						2.0
					]
				}
			},
			"name":"b:BMW_M4CompetitionG82TNR0_2021Base_Material1.001",
			"pbrMetallicRoughness":{
				"baseColorFactor":[
					0.0031107799150049686,
					0.0031107799150049686,
					0.0031107799150049686,
					1
				],
				"metallicFactor":0.3073394298553467,
				"roughnessFactor":0.2844036817550659
			}
		},
		{
			"alphaMode":"BLEND",
			"doubleSided":true,
			"extensions":{
				"KHR_materials_specular":{
					"specularColorFactor":[
						2.0,
						2.0,
						2.0
					]
				}
			},
			"name":"b:BMW_M4CompetitionG82TNR0_2021EngineA_Material1",
			"normalTexture":{
				"index":0
			},
			"pbrMetallicRoughness":{
				"baseColorTexture":{
					"index":1
				},
				"metallicFactor":0.5,
				"roughnessFactor":0
			}
		},
		{
			"alphaMode":"BLEND",
			"doubleSided":true,
			"extensions":{
				"KHR_materials_specular":{
					"specularColorFactor":[
						2.0,
						2.0,
						2.0
					]
				}
			},
			"name":"b:BMW_M4CompetitionG82TNR0_2021Coloured_Material_004",
			"pbrMetallicRoughness":{
				"baseColorTexture":{
					"index":2
				},
				"metallicFactor":0.5,
				"roughnessFactor":0
			}
		},
		{
			"doubleSided":true,
			"extensions":{
				"KHR_materials_specular":{
					"specularColorFactor":[
						2.0,
						2.0,
						2.0
					]
				}
			},
			"name":"b:BMW_M4CompetitionG82TNR0_2021Carbon1_Material1",
			"normalTexture":{
				"index":3
			},
			"pbrMetallicRoughness":{
				"baseColorTexture":{
					"index":4
				},
				"metallicFactor":0.5,
				"roughnessFactor":0
			}
		},
		{
			"alphaMode":"BLEND",
			"doubleSided":true,
			"extensions":{
				"KHR_materials_specular":{
					"specularColorFactor":[
						2.0,
						2.0,
						2.0
					]
				}
			},
			"name":"b:BMW_M4CompetitionG82TNR0_2021GrilleNoAlpha5A_Material1",
			"normalTexture":{
				"index":5
			},
			"pbrMetallicRoughness":{
				"baseColorTexture":{
					"index":6
				},
				"metallicFactor":0.5,
				"roughnessFactor":0
			}
		},
		{
			"alphaMode":"BLEND",
			"doubleSided":true,
			"extensions":{
				"KHR_materials_specular":{
					"specularColorFactor":[
						2.0,
						2.0,
						2.0
					]
				}
			},
			"name":"b:BMW_M4CompetitionG82TNR0_2021GrilleNoAlpha9A_Material1",
			"normalTexture":{
				"index":7
			},
			"pbrMetallicRoughness":{
				"baseColorTexture":{
					"index":8
				},
				"metallicFactor":0.5,
				"roughnessFactor":0
			}
		},
		{
			"alphaMode":"BLEND",
			"doubleSided":true,
			"extensions":{
				"KHR_materials_specular":{
					"specularColorFactor":[
						2.0,
						2.0,
						2.0
					]
				}
			},
			"name":"b:BMW_M4CompetitionG82TNR0_2021InteriorA_Material1",
			"normalTexture":{
				"index":9
			},
			"pbrMetallicRoughness":{
				"baseColorTexture":{
					"index":10
				},
				"metallicFactor":0.5,
				"roughnessFactor":0
			}
		},
		{
			"alphaMode":"BLEND",
			"doubleSided":true,
			"extensions":{
				"KHR_materials_specular":{
					"specularColorFactor":[
						2.0,
						2.0,
						2.0
					]
				}
			},
			"name":"phong2",
			"pbrMetallicRoughness":{
				"baseColorTexture":{
					"index":11
				},
				"metallicFactor":0.5,
				"roughnessFactor":0.5527864098548889
			}
		},
		{
			"alphaMode":"BLEND",
			"doubleSided":true,
			"extensions":{
				"KHR_materials_specular":{
					"specularColorFactor":[
						2.0,
						2.0,
						2.0
					]
				}
			},
			"name":"b:BMW_M4CompetitionG82TNR0_2021GrilleNoAlpha6A_Material1",
			"normalTexture":{
				"index":12
			},
			"pbrMetallicRoughness":{
				"baseColorTexture":{
					"index":13
				},
				"metallicFactor":0.5,
				"roughnessFactor":0
			}
		},
		{
			"alphaMode":"BLEND",
			"doubleSided":true,
			"extensions":{
				"KHR_materials_specular":{
					"specularColorFactor":[
						2.0,
						2.0,
						2.0
					]
				}
			},
			"name":"b:BMW_M4CompetitionG82TNR0_2021GrilleNoAlpha7A_Material1",
			"normalTexture":{
				"index":14
			},
			"pbrMetallicRoughness":{
				"baseColorTexture":{
					"index":15
				},
				"metallicFactor":0.5,
				"roughnessFactor":0
			}
		},
		{
			"alphaMode":"BLEND",
			"doubleSided":true,
			"extensions":{
				"KHR_materials_specular":{
					"specularColorFactor":[
						2.0,
						2.0,
						2.0
					]
				}
			},
			"name":"b:BMW_M4CompetitionG82TNR0_2021GrilleNoAlpha8A_Material1",
			"normalTexture":{
				"index":16
			},
			"pbrMetallicRoughness":{
				"baseColorTexture":{
					"index":17
				},
				"metallicFactor":0.5,
				"roughnessFactor":0
			}
		},
		{
			"alphaMode":"BLEND",
			"doubleSided":true,
			"extensions":{
				"KHR_materials_specular":{
					"specularColorFactor":[
						2.0,
						2.0,
						2.0
					]
				}
			},
			"name":"b:BMW_M4CompetitionG82TNR0_2021BadgeA_Material1",
			"normalTexture":{
				"index":18
			},
			"pbrMetallicRoughness":{
				"baseColorTexture":{
					"index":19
				},
				"metallicFactor":0.5,
				"roughnessFactor":0
			}
		},
		{
			"doubleSided":true,
			"name":"dark",
			"pbrMetallicRoughness":{
				"baseColorFactor":[
					0.009334445931017399,
					0.009334445931017399,
					0.009334445931017399,
					1
				],
				"metallicFactor":0.963302731513977,
				"roughnessFactor":0.5
			}
		},
		{
			"alphaMode":"BLEND",
			"doubleSided":true,
			"extensions":{
				"KHR_materials_specular":{
					"specularColorFactor":[
						2.0,
						2.0,
						2.0
					]
				}
			},
			"name":"b:BMW_M4CompetitionG82TNR0_2021LightA_Material1",
			"pbrMetallicRoughness":{
				"baseColorTexture":{
					"index":20
				},
				"metallicFactor":0.5,
				"roughnessFactor":0
			}
		},
		{
			"alphaMode":"BLEND",
			"doubleSided":true,
			"extensions":{
				"KHR_materials_specular":{
					"specularColorFactor":[
						2.0,
						2.0,
						2.0
					]
				}
			},
			"name":"b:BMW_M4CompetitionG82TNR0_2021ManufacturerPlateA_Material1",
			"pbrMetallicRoughness":{
				"baseColorTexture":{
					"index":21
				},
				"metallicFactor":0.5,
				"roughnessFactor":0
			}
		},
		{
			"alphaMode":"BLEND",
			"doubleSided":true,
			"extensions":{
				"KHR_materials_specular":{
					"specularColorFactor":[
						2.0,
						2.0,
						2.0
					]
				}
			},
			"name":"glasswindshiled",
			"pbrMetallicRoughness":{
				"baseColorFactor":[
					0.0031107368413358927,
					0.0031107368413358927,
					0.0031107368413358927,
					0.9082568883895874
				],
				"metallicFactor":0,
				"roughnessFactor":0
			}
		},
		{
			"alphaMode":"BLEND",
			"doubleSided":true,
			"extensions":{
				"KHR_materials_specular":{
					"specularColorFactor":[
						2.0,
						2.0,
						2.0
					]
				}
			},
			"name":"red_glass",
			"pbrMetallicRoughness":{
				"baseColorFactor":[
					0.5,
					0,
					0,
					0.49650347232818604
				],
				"metallicFactor":0.5,
				"roughnessFactor":0.5527864098548889
			}
		},
		{
			"doubleSided":true,
			"emissiveFactor":[
				1,
				0.2195848971605301,
				0
			],
			"extensions":{
				"KHR_materials_emissive_strength":{
					"emissiveStrength":18.599998474121094
				}
			},
			"name":"emit",
			"pbrMetallicRoughness":{
				"baseColorFactor":[
					0,
					0,
					0,
					1
				]
			}
		},
		{
			"alphaMode":"BLEND",
			"doubleSided":true,
			"name":"glass",
			"pbrMetallicRoughness":{
				"baseColorFactor":[
					0.09854250401258469,
					0.09854250401258469,
					0.09854250401258469,
					0.14678901433944702
				],
				"metallicFactor":0,
				"roughnessFactor":0.05045872926712036
			}
		},
		{
			"doubleSided":true,
			"emissiveFactor":[
				1,
				0.009147461503744125,
				0
			],
			"extensions":{
				"KHR_materials_emissive_strength":{
					"emissiveStrength":50
				}
			},
			"name":"wmit red",
			"pbrMetallicRoughness":{
				"baseColorFactor":[
					0,
					0,
					0,
					1
				]
			}
		},
		{
			"doubleSided":true,
			"extensions":{
				"KHR_materials_specular":{
					"specularColorFactor":[
						2.0,
						2.0,
						2.0
					]
				}
			},
			"name":"b:BMW_M4CompetitionG82TNR0_2021Base_Material1",
			"pbrMetallicRoughness":{
				"baseColorFactor":[
					0,
					0,
					0,
					1
				],
				"metallicFactor":0.5,
				"roughnessFactor":0
			}
		},
		{
			"doubleSided":true,
			"name":"Material.002",
			"pbrMetallicRoughness":{
				"baseColorFactor":[
					0.8001105785369873,
					0.03768601268529892,
					0,
					1
				],
				"metallicFactor":0.018348634243011475,
				"roughnessFactor":0.050458721816539764
			}
		},
		{
			"doubleSided":true,
			"name":"Material.001",
			"pbrMetallicRoughness":{
				"baseColorFactor":[
					0.06436657905578613,
					0.06436657905578613,
					0.06436657905578613,
					1
				],
				"metallicFactor":0.4587155878543854,
				"roughnessFactor":0.46330273151397705
			}
		},
		{
			"doubleSided":true,
			"name":"disk.001",
			"pbrMetallicRoughness":{
				"baseColorFactor":[
					0.6633778214454651,
					0.6633778214454651,
					0.6633778214454651,
					1
				],
				"metallicFactor":0.47706419229507446,
				"roughnessFactor":0
			}
		},
		{
			"doubleSided":true,
			"name":"main ",
			"pbrMetallicRoughness":{
				"baseColorFactor":[
					0.023437395691871643,
					0.02222048118710518,
					0.022844135761260986,
					1
				],
				"metallicFactor":0.35779815912246704,
				"roughnessFactor":0.06055039167404175
			}
		},
		{
			"doubleSided":true,
			"name":"metalblack",
			"pbrMetallicRoughness":{
				"baseColorFactor":[
					0.06436657905578613,
					0.06436657905578613,
					0.06436657905578613,
					1
				],
				"metallicFactor":0.8165137767791748,
				"roughnessFactor":0.1238531768321991
			}
		},
		{
			"doubleSided":true,
			"name":"sidetyre",
			"pbrMetallicRoughness":{
				"baseColorFactor":[
					0.007400533650070429,
					0.008119283244013786,
					0.009027047082781792,
					1
				],
				"metallicFactor":0.15981817245483398,
				"roughnessFactor":0.4998181462287903
			}
		},
		{
			"doubleSided":true,
			"name":"Material",
			"pbrMetallicRoughness":{
				"baseColorTexture":{
					"index":22
				},
				"metallicFactor":0,
				"roughnessFactor":0.5
			}
		}
	],
	"meshes":[
		{
			"name":"Plane.015",
			"primitives":[
				{
					"attributes":{
						"POSITION":0,
						"NORMAL":1,
						"TEXCOORD_0":2
					},
					"indices":3,
					"material":0
				}
			]
		},
		{
			"name":"Plane.017",
			"primitives":[
				{
					"attributes":{
						"POSITION":4,
						"NORMAL":5,
						"TEXCOORD_0":6
					},
					"indices":7,
					"material":0
				}
			]
		},
		{
			"name":"Plane.019",
			"primitives":[
				{
					"attributes":{
						"POSITION":8,
						"NORMAL":9,
						"TEXCOORD_0":10
					},
					"indices":11,
					"material":1
				}
			]
		},
		{
			"name":"Plane.020",
			"primitives":[
				{
					"attributes":{
						"POSITION":12,
						"NORMAL":13,
						"TEXCOORD_0":14
					},
					"indices":15,
					"material":1
				}
			]
		},
		{
			"name":"Plane.021",
			"primitives":[
				{
					"attributes":{
						"POSITION":16,
						"NORMAL":17,
						"TEXCOORD_0":18
					},
					"indices":19,
					"material":1
				}
			]
		},
		{
			"name":"Plane.022",
			"primitives":[
				{
					"attributes":{
						"POSITION":20,
						"NORMAL":21,
						"TEXCOORD_0":22
					},
					"indices":23,
					"material":0
				}
			]
		},
		{
			"name":"Plane.023",
			"primitives":[
				{
					"attributes":{
						"POSITION":24,
						"NORMAL":25,
						"TEXCOORD_0":26
					},
					"indices":27,
					"material":1
				}
			]
		},
		{
			"name":"Plane.024",
			"primitives":[
				{
					"attributes":{
						"POSITION":28,
						"NORMAL":29,
						"TEXCOORD_0":30
					},
					"indices":31,
					"material":1
				}
			]
		},
		{
			"name":"Plane.025",
			"primitives":[
				{
					"attributes":{
						"POSITION":32,
						"NORMAL":33,
						"TEXCOORD_0":34
					},
					"indices":35,
					"material":1
				}
			]
		},
		{
			"name":"Plane.026",
			"primitives":[
				{
					"attributes":{
						"POSITION":36,
						"NORMAL":37,
						"TEXCOORD_0":38
					},
					"indices":39,
					"material":1
				}
			]
		},
		{
			"name":"Plane.027",
			"primitives":[
				{
					"attributes":{
						"POSITION":40,
						"NORMAL":41,
						"TEXCOORD_0":42
					},
					"indices":43,
					"material":1
				}
			]
		},
		{
			"name":"Mesh.005",
			"primitives":[
				{
					"attributes":{
						"POSITION":44,
						"NORMAL":45,
						"TEXCOORD_0":46
					},
					"indices":47,
					"material":2
				}
			]
		},
		{
			"name":"Mesh.007",
			"primitives":[
				{
					"attributes":{
						"POSITION":48,
						"NORMAL":49,
						"TEXCOORD_0":50
					},
					"indices":51,
					"material":3
				}
			]
		},
		{
			"name":"Mesh.008",
			"primitives":[
				{
					"attributes":{
						"POSITION":52,
						"NORMAL":53,
						"TEXCOORD_0":54
					},
					"indices":55,
					"material":4
				}
			]
		},
		{
			"name":"Mesh.009",
			"primitives":[
				{
					"attributes":{
						"POSITION":56,
						"NORMAL":57,
						"TEXCOORD_0":58
					},
					"indices":59,
					"material":5
				}
			]
		},
		{
			"name":"Mesh.010",
			"primitives":[
				{
					"attributes":{
						"POSITION":60,
						"NORMAL":61,
						"TEXCOORD_0":62
					},
					"indices":63,
					"material":6
				}
			]
		},
		{
			"name":"Mesh.011",
			"primitives":[
				{
					"attributes":{
						"POSITION":64,
						"NORMAL":65,
						"TEXCOORD_0":66
					},
					"indices":67,
					"material":7
				},
				{
					"attributes":{
						"POSITION":68,
						"NORMAL":69,
						"TEXCOORD_0":70
					},
					"indices":71,
					"material":8
				}
			]
		},
		{
			"name":"Mesh.012",
			"primitives":[
				{
					"attributes":{
						"POSITION":72,
						"NORMAL":73,
						"TEXCOORD_0":74
					},
					"indices":75,
					"material":3
				}
			]
		},
		{
			"name":"Mesh.013",
			"primitives":[
				{
					"attributes":{
						"POSITION":76,
						"NORMAL":77,
						"TEXCOORD_0":78
					},
					"indices":79,
					"material":0
				}
			]
		},
		{
			"name":"Mesh.014",
			"primitives":[
				{
					"attributes":{
						"POSITION":80,
						"NORMAL":81,
						"TEXCOORD_0":82
					},
					"indices":83,
					"material":9
				}
			]
		},
		{
			"name":"Mesh.015",
			"primitives":[
				{
					"attributes":{
						"POSITION":84,
						"NORMAL":85,
						"TEXCOORD_0":86
					},
					"indices":87,
					"material":10
				}
			]
		},
		{
			"name":"Mesh.016",
			"primitives":[
				{
					"attributes":{
						"POSITION":88,
						"NORMAL":89,
						"TEXCOORD_0":90
					},
					"indices":91,
					"material":11
				}
			]
		},
		{
			"name":"Mesh.017",
			"primitives":[
				{
					"attributes":{
						"POSITION":92,
						"NORMAL":93,
						"TEXCOORD_0":94
					},
					"indices":95,
					"material":12
				}
			]
		},
		{
			"name":"Mesh.018",
			"primitives":[
				{
					"attributes":{
						"POSITION":96,
						"NORMAL":97
					},
					"indices":98,
					"material":13
				}
			]
		},
		{
			"name":"Mesh.019",
			"primitives":[
				{
					"attributes":{
						"POSITION":99,
						"NORMAL":100,
						"TEXCOORD_0":101
					},
					"indices":102,
					"material":3
				}
			]
		},
		{
			"name":"Mesh.020",
			"primitives":[
				{
					"attributes":{
						"POSITION":103,
						"NORMAL":104,
						"TEXCOORD_0":105
					},
					"indices":106,
					"material":14
				}
			]
		},
		{
			"name":"Mesh.021",
			"primitives":[
				{
					"attributes":{
						"POSITION":107,
						"NORMAL":108,
						"TEXCOORD_0":109
					},
					"indices":110,
					"material":15
				}
			]
		},
		{
			"name":"Mesh.022",
			"primitives":[
				{
					"attributes":{
						"POSITION":111,
						"NORMAL":112,
						"TEXCOORD_0":113
					},
					"indices":114,
					"material":0
				},
				{
					"attributes":{
						"POSITION":115,
						"NORMAL":116,
						"TEXCOORD_0":117
					},
					"indices":118,
					"material":16
				}
			]
		},
		{
			"name":"Mesh.023",
			"primitives":[
				{
					"attributes":{
						"POSITION":119,
						"NORMAL":120,
						"TEXCOORD_0":121
					},
					"indices":122,
					"material":16
				},
				{
					"attributes":{
						"POSITION":123,
						"NORMAL":124,
						"TEXCOORD_0":125
					},
					"indices":126,
					"material":17
				},
				{
					"attributes":{
						"POSITION":127,
						"NORMAL":128,
						"TEXCOORD_0":129
					},
					"indices":130,
					"material":3
				}
			]
		},
		{
			"name":"Mesh.024",
			"primitives":[
				{
					"attributes":{
						"POSITION":131,
						"NORMAL":132,
						"TEXCOORD_0":133
					},
					"indices":134,
					"material":3
				}
			]
		},
		{
			"name":"Mesh.025",
			"primitives":[
				{
					"attributes":{
						"POSITION":135,
						"NORMAL":136,
						"TEXCOORD_0":137
					},
					"indices":138,
					"material":18
				}
			]
		},
		{
			"name":"Mesh.026",
			"primitives":[
				{
					"attributes":{
						"POSITION":139,
						"NORMAL":140,
						"TEXCOORD_0":141
					},
					"indices":142,
					"material":12
				}
			]
		},
		{
			"name":"Mesh.049",
			"primitives":[
				{
					"attributes":{
						"POSITION":143,
						"NORMAL":144,
						"TEXCOORD_0":145
					},
					"indices":146,
					"material":6
				}
			]
		},
		{
			"name":"Mesh.050",
			"primitives":[
				{
					"attributes":{
						"POSITION":147,
						"NORMAL":148,
						"TEXCOORD_0":149
					},
					"indices":150,
					"material":1
				}
			]
		},
		{
			"name":"Mesh.051",
			"primitives":[
				{
					"attributes":{
						"POSITION":151,
						"NORMAL":152,
						"TEXCOORD_0":153
					},
					"indices":154,
					"material":19
				}
			]
		},
		{
			"name":"Cylinder.002",
			"primitives":[
				{
					"attributes":{
						"POSITION":155,
						"NORMAL":156,
						"TEXCOORD_0":157
					},
					"indices":158,
					"material":20
				}
			]
		},
		{
			"name":"Cylinder.003",
			"primitives":[
				{
					"attributes":{
						"POSITION":159,
						"NORMAL":160,
						"TEXCOORD_0":161
					},
					"indices":162,
					"material":21
				}
			]
		},
		{
			"name":"Mesh.052",
			"primitives":[
				{
					"attributes":{
						"POSITION":163,
						"NORMAL":164,
						"TEXCOORD_0":165
					},
					"indices":166,
					"material":21
				}
			]
		},
		{
			"name":"Plane.028",
			"primitives":[
				{
					"attributes":{
						"POSITION":167,
						"NORMAL":168,
						"TEXCOORD_0":169
					},
					"indices":170,
					"material":1
				}
			]
		},
		{
			"name":"Cylinder.004",
			"primitives":[
				{
					"attributes":{
						"POSITION":171,
						"NORMAL":172,
						"TEXCOORD_0":173
					},
					"indices":174,
					"material":14
				}
			]
		},
		{
			"name":"Plane.029",
			"primitives":[
				{
					"attributes":{
						"POSITION":175,
						"NORMAL":176,
						"TEXCOORD_0":177
					},
					"indices":178,
					"material":21
				}
			]
		},
		{
			"name":"Plane.030",
			"primitives":[
				{
					"attributes":{
						"POSITION":179,
						"NORMAL":180,
						"TEXCOORD_0":181
					},
					"indices":182,
					"material":13
				}
			]
		},
		{
			"name":"Cylinder.005",
			"primitives":[
				{
					"attributes":{
						"POSITION":183,
						"NORMAL":184,
						"TEXCOORD_0":185
					},
					"indices":186,
					"material":22
				}
			]
		},
		{
			"name":"Circle.001",
			"primitives":[
				{
					"attributes":{
						"POSITION":187,
						"NORMAL":188,
						"TEXCOORD_0":189
					},
					"indices":190,
					"material":23
				},
				{
					"attributes":{
						"POSITION":191,
						"NORMAL":192,
						"TEXCOORD_0":193
					},
					"indices":194,
					"material":24
				},
				{
					"attributes":{
						"POSITION":195,
						"NORMAL":196,
						"TEXCOORD_0":197
					},
					"indices":198,
					"material":25
				},
				{
					"attributes":{
						"POSITION":199,
						"NORMAL":200,
						"TEXCOORD_0":201
					},
					"indices":202,
					"material":26
				},
				{
					"attributes":{
						"POSITION":203,
						"NORMAL":204,
						"TEXCOORD_0":205
					},
					"indices":206,
					"material":27
				}
			]
		},
		{
			"name":"Circle.004",
			"primitives":[
				{
					"attributes":{
						"POSITION":207,
						"NORMAL":208,
						"TEXCOORD_0":209
					},
					"indices":210,
					"material":23
				},
				{
					"attributes":{
						"POSITION":211,
						"NORMAL":212,
						"TEXCOORD_0":213
					},
					"indices":214,
					"material":24
				},
				{
					"attributes":{
						"POSITION":215,
						"NORMAL":216,
						"TEXCOORD_0":217
					},
					"indices":198,
					"material":25
				},
				{
					"attributes":{
						"POSITION":218,
						"NORMAL":219,
						"TEXCOORD_0":220
					},
					"indices":221,
					"material":26
				},
				{
					"attributes":{
						"POSITION":222,
						"NORMAL":223,
						"TEXCOORD_0":224
					},
					"indices":206,
					"material":27
				}
			]
		},
		{
			"name":"Plane.031",
			"primitives":[
				{
					"attributes":{
						"POSITION":225,
						"NORMAL":226,
						"TEXCOORD_0":227
					},
					"indices":228,
					"material":0
				}
			]
		},
		{
			"name":"Cylinder.006",
			"primitives":[
				{
					"attributes":{
						"POSITION":229,
						"NORMAL":230,
						"TEXCOORD_0":231
					},
					"indices":232,
					"material":13
				}
			]
		},
		{
			"name":"Cylinder.007",
			"primitives":[
				{
					"attributes":{
						"POSITION":233,
						"NORMAL":234,
						"TEXCOORD_0":235
					},
					"indices":186,
					"material":22
				}
			]
		},
		{
			"name":"Plane.032",
			"primitives":[
				{
					"attributes":{
						"POSITION":236,
						"NORMAL":237,
						"TEXCOORD_0":238
					},
					"indices":239,
					"material":28
				}
			]
		}
	],
	"textures":[
		{
			"sampler":0,
			"source":0
		},
		{
			"sampler":0,
			"source":1
		},
		{
			"sampler":0,
			"source":2
		},
		{
			"sampler":0,
			"source":3
		},
		{
			"sampler":0,
			"source":4
		},
		{
			"sampler":0,
			"source":5
		},
		{
			"sampler":0,
			"source":6
		},
		{
			"sampler":0,
			"source":7
		},
		{
			"sampler":0,
			"source":8
		},
		{
			"sampler":0,
			"source":9
		},
		{
			"sampler":0,
			"source":10
		},
		{
			"sampler":0,
			"source":11
		},
		{
			"sampler":0,
			"source":12
		},
		{
			"sampler":0,
			"source":13
		},
		{
			"sampler":0,
			"source":14
		},
		{
			"sampler":0,
			"source":15
		},
		{
			"sampler":0,
			"source":16
		},
		{
			"sampler":0,
			"source":17
		},
		{
			"sampler":0,
			"source":18
		},
		{
			"sampler":0,
			"source":19
		},
		{
			"sampler":0,
			"source":20
		},
		{
			"sampler":0,
			"source":21
		},
		{
			"sampler":0,
			"source":22
		}
	],
	"images":[
		{
			"mimeType":"image/png",
			"name":"BMW_M4CompetitionG82TNR_2021_EngineA_Normal",
			"uri":"BMW_M4CompetitionG82TNR_2021_EngineA_Normal.png"
		},
		{
			"mimeType":"image/png",
			"name":"BMW_M4CompetitionG82TNR_2021_EngineA_DiffuseAOSO",
			"uri":"BMW_M4CompetitionG82TNR_2021_EngineA_DiffuseAOSO.png"
		},
		{
			"mimeType":"image/png",
			"name":"Global_Texture_Coloured_Diffuse",
			"uri":"Global_Texture_Coloured_Diffuse.png"
		},
		{
			"mimeType":"image/png",
			"name":"common_carbon05_norm",
			"uri":"common_carbon05_norm.png"
		},
		{
			"mimeType":"image/png",
			"name":"common_carbon05_black_diff",
			"uri":"common_carbon05_black_diff.png"
		},
		{
			"mimeType":"image/png",
			"name":"BMW_M4CompetitionG82TNR_2021_Grille5A_Normal",
			"uri":"BMW_M4CompetitionG82TNR_2021_Grille5A_Normal.png"
		},
		{
			"mimeType":"image/png",
			"name":"BMW_M4CompetitionG82TNR_2021_Grille5A_DiffuseAOSO",
			"uri":"BMW_M4CompetitionG82TNR_2021_Grille5A_DiffuseAOSO.png"
		},
		{
			"mimeType":"image/png",
			"name":"BMW_M4CompetitionG82TNR_2021_Grille9A_Normal",
			"uri":"BMW_M4CompetitionG82TNR_2021_Grille9A_Normal.png"
		},
		{
			"mimeType":"image/png",
			"name":"BMW_M4CompetitionG82TNR_2021_Grille9A_DiffuseAOSO",
			"uri":"BMW_M4CompetitionG82TNR_2021_Grille9A_DiffuseAOSO.png"
		},
		{
			"mimeType":"image/png",
			"name":"BMW_M4CompetitionG82TNR_2021_InteriorA_Normal",
			"uri":"BMW_M4CompetitionG82TNR_2021_InteriorA_Normal.png"
		},
		{
			"mimeType":"image/png",
			"name":"BMW_M4CompetitionG82TNR_2021_InteriorA_DiffuseAOSO",
			"uri":"BMW_M4CompetitionG82TNR_2021_InteriorA_DiffuseAOSO.png"
		},
		{
			"mimeType":"image/png",
			"name":"BMW_M4CompetitionG82TNR_2021_InteriorA_Emissive",
			"uri":"BMW_M4CompetitionG82TNR_2021_InteriorA_Emissive.png"
		},
		{
			"mimeType":"image/png",
			"name":"BMW_M4CompetitionG82TNR_2021_Grille6A_Normal",
			"uri":"BMW_M4CompetitionG82TNR_2021_Grille6A_Normal.png"
		},
		{
			"mimeType":"image/png",
			"name":"BMW_M4CompetitionG82TNR_2021_Grille6A_DiffuseAOSO",
			"uri":"BMW_M4CompetitionG82TNR_2021_Grille6A_DiffuseAOSO.png"
		},
		{
			"mimeType":"image/png",
			"name":"BMW_M4CompetitionG82TNR_2021_Grille7A_Normal",
			"uri":"BMW_M4CompetitionG82TNR_2021_Grille7A_Normal.png"
		},
		{
			"mimeType":"image/png",
			"name":"BMW_M4CompetitionG82TNR_2021_Grille7A_DiffuseAOSO",
			"uri":"BMW_M4CompetitionG82TNR_2021_Grille7A_DiffuseAOSO.png"
		},
		{
			"mimeType":"image/png",
			"name":"BMW_M4CompetitionG82TNR_2021_Grille8A_Normal",
			"uri":"BMW_M4CompetitionG82TNR_2021_Grille8A_Normal.png"
		},
		{
			"mimeType":"image/png",
			"name":"BMW_M4CompetitionG82TNR_2021_Grille8A_DiffuseAOSO",
			"uri":"BMW_M4CompetitionG82TNR_2021_Grille8A_DiffuseAOSO.png"
		},
		{
			"mimeType":"image/png",
			"name":"BMW_M4CompetitionG82TNR_2021_BadgeA_Normal",
			"uri":"BMW_M4CompetitionG82TNR_2021_BadgeA_Normal.png"
		},
		{
			"mimeType":"image/png",
			"name":"BadgeA_DiffuseAOSO",
			"uri":"BadgeA_DiffuseAOSO.png"
		},
		{
			"mimeType":"image/png",
			"name":"BMW_M4CompetitionG82TNR_2021_LightA_Diffuse",
			"uri":"BMW_M4CompetitionG82TNR_2021_LightA_Diffuse.png"
		},
		{
			"mimeType":"image/png",
			"name":"BMW_M4CompetitionG82TNR_2021_ManufacturerPlateA_Diffuse",
			"uri":"BMW_M4CompetitionG82TNR_2021_ManufacturerPlateA_Diffuse.png"
		},
		{
			"mimeType":"image/png",
			"name":"Knitrologo",
			"uri":"Knitrologo.png"
		}
	],
	"accessors":[
		{
			"bufferView":0,
			"componentType":5126,
			"count":4726,
			"max":[
				4.927077293395996,
				4.1117377281188965,
				11.64638614654541
			],
			"min":[
				-4.927077293395996,
				0.19783823192119598,
				3.559185266494751
			],
			"type":"VEC3"
		},
		{
			"bufferView":1,
			"componentType":5126,
			"count":4726,
			"type":"VEC3"
		},
		{
			"bufferView":2,
			"componentType":5126,
			"count":4726,
			"type":"VEC2"
		},
		{
			"bufferView":3,
			"componentType":5123,
			"count":26184,
			"type":"SCALAR"
		},
		{
			"bufferView":4,
			"componentType":5126,
			"count":1465,
			"max":[
				3.8810620307922363,
				0.02218151092529297,
				5.898917198181152
			],
			"min":[
				-3.8810622692108154,
				-1.3156154155731201,
				-1.0029940605163574
			],
			"type":"VEC3"
		},
		{
			"bufferView":5,
			"componentType":5126,
			"count":1465,
			"type":"VEC3"
		},
		{
			"bufferView":6,
			"componentType":5126,
			"count":1465,
			"type":"VEC2"
		},
		{
			"bufferView":7,
			"componentType":5123,
			"count":8340,
			"type":"SCALAR"
		},
		{
			"bufferView":8,
			"componentType":5126,
			"count":582,
			"max":[
				3.976351737976074,
				1.9213966131210327,
				10.892765998840332
			],
			"min":[
				-3.976351737976074,
				0.22872784733772278,
				9.367259979248047
			],
			"type":"VEC3"
		},
		{
			"bufferView":9,
			"componentType":5126,
			"count":582,
			"type":"VEC3"
		},
		{
			"bufferView":10,
			"componentType":5126,
			"count":582,
			"type":"VEC2"
		},
		{
			"bufferView":11,
			"componentType":5123,
			"count":2304,
			"type":"SCALAR"
		},
		{
			"bufferView":12,
			"componentType":5126,
			"count":378,
			"max":[
				4.341824531555176,
				1.8862407207489014,
				10.679967880249023
			],
			"min":[
				-4.341825008392334,
				0.23333097994327545,
				9.684635162353516
			],
			"type":"VEC3"
		},
		{
			"bufferView":13,
			"componentType":5126,
			"count":378,
			"type":"VEC3"
		},
		{
			"bufferView":14,
			"componentType":5126,
			"count":378,
			"type":"VEC2"
		},
		{
			"bufferView":15,
			"componentType":5123,
			"count":1920,
			"type":"SCALAR"
		},
		{
			"bufferView":16,
			"componentType":5126,
			"count":560,
			"max":[
				4.316886901855469,
				1.6072872877120972,
				10.36389446258545
			],
			"min":[
				-4.316886901855469,
				0.5573934316635132,
				9.643085479736328
			],
			"type":"VEC3"
		},
		{
			"bufferView":17,
			"componentType":5126,
			"count":560,
			"type":"VEC3"
		},
		{
			"bufferView":18,
			"componentType":5126,
			"count":560,
			"type":"VEC2"
		},
		{
			"bufferView":19,
			"componentType":5123,
			"count":3240,
			"type":"SCALAR"
		},
		{
			"bufferView":20,
			"componentType":5126,
			"count":3067,
			"max":[
				4.940195083618164,
				3.880976676940918,
				-1.6443274021148682
			],
			"min":[
				-4.940195083618164,
				0.43934738636016846,
				-11.556353569030762
			],
			"type":"VEC3"
		},
		{
			"bufferView":21,
			"componentType":5126,
			"count":3067,
			"type":"VEC3"
		},
		{
			"bufferView":22,
			"componentType":5126,
			"count":3067,
			"type":"VEC2"
		},
		{
			"bufferView":23,
			"componentType":5123,
			"count":16896,
			"type":"SCALAR"
		},
		{
			"bufferView":24,
			"componentType":5126,
			"count":808,
			"max":[
				4.950435638427734,
				0.7402344942092896,
				5.652790069580078
			],
			"min":[
				-4.950435161590576,
				-0.07959751039743423,
				-4.673129558563232
			],
			"type":"VEC3"
		},
		{
			"bufferView":25,
			"componentType":5126,
			"count":808,
			"type":"VEC3"
		},
		{
			"bufferView":26,
			"componentType":5126,
			"count":808,
			"type":"VEC2"
		},
		{
			"bufferView":27,
			"componentType":5123,
			"count":4104,
			"type":"SCALAR"
		},
		{
			"bufferView":28,
			"componentType":5126,
			"count":10323,
			"max":[
				4.942682266235352,
				1.505190372467041,
				12.01554012298584
			],
			"min":[
				-4.942682266235352,
				0.34651732444763184,
				9.077899932861328
			],
			"type":"VEC3"
		},
		{
			"bufferView":29,
			"componentType":5126,
			"count":10323,
			"type":"VEC3"
		},
		{
			"bufferView":30,
			"componentType":5126,
			"count":10323,
			"type":"VEC2"
		},
		{
			"bufferView":31,
			"componentType":5123,
			"count":61056,
			"type":"SCALAR"
		},
		{
			"bufferView":32,
			"componentType":5126,
			"count":2290,
			"max":[
				0.3090580999851227,
				0.3962421417236328,
				-0.6091832518577576
			],
			"min":[
				-0.3090580999851227,
				0.31507307291030884,
				-0.7560795545578003
			],
			"type":"VEC3"
		},
		{
			"bufferView":33,
			"componentType":5126,
			"count":2290,
			"type":"VEC3"
		},
		{
			"bufferView":34,
			"componentType":5126,
			"count":2290,
			"type":"VEC2"
		},
		{
			"bufferView":35,
			"componentType":5123,
			"count":13728,
			"type":"SCALAR"
		},
		{
			"bufferView":36,
			"componentType":5126,
			"count":4926,
			"max":[
				1.7408887147903442,
				2.7552356719970703,
				11.62459945678711
			],
			"min":[
				-1.7408887147903442,
				0.7133435606956482,
				11.33851432800293
			],
			"type":"VEC3"
		},
		{
			"bufferView":37,
			"componentType":5126,
			"count":4926,
			"type":"VEC3"
		},
		{
			"bufferView":38,
			"componentType":5126,
			"count":4926,
			"type":"VEC2"
		},
		{
			"bufferView":39,
			"componentType":5123,
			"count":7440,
			"type":"SCALAR"
		},
		{
			"bufferView":40,
			"componentType":5126,
			"count":560,
			"max":[
				1.716601014137268,
				2.9755659103393555,
				11.586838722229004
			],
			"min":[
				-1.716600775718689,
				1.7475202083587646,
				11.361820220947266
			],
			"type":"VEC3"
		},
		{
			"bufferView":41,
			"componentType":5126,
			"count":560,
			"type":"VEC3"
		},
		{
			"bufferView":42,
			"componentType":5126,
			"count":560,
			"type":"VEC2"
		},
		{
			"bufferView":43,
			"componentType":5123,
			"count":2736,
			"type":"SCALAR"
		},
		{
			"bufferView":44,
			"componentType":5126,
			"count":33032,
			"max":[
				0.803849995136261,
				2.270232915878296,
				-0.4026840031147003
			],
			"min":[
				-0.803849995136261,
				-2.2186169624328613,
				-0.8969709873199463
			],
			"type":"VEC3"
		},
		{
			"bufferView":45,
			"componentType":5126,
			"count":33032,
			"type":"VEC3"
		},
		{
			"bufferView":46,
			"componentType":5126,
			"count":33032,
			"type":"VEC2"
		},
		{
			"bufferView":47,
			"componentType":5123,
			"count":97644,
			"type":"SCALAR"
		},
		{
			"bufferView":48,
			"componentType":5126,
			"count":832,
			"max":[
				0.7389910221099854,
				2.1968600749969482,
				-0.5605790019035339
			],
			"min":[
				-0.7389910221099854,
				1.045740008354187,
				-0.8019459843635559
			],
			"type":"VEC3"
		},
		{
			"bufferView":49,
			"componentType":5126,
			"count":832,
			"type":"VEC3"
		},
		{
			"bufferView":50,
			"componentType":5126,
			"count":832,
			"type":"VEC2"
		},
		{
			"bufferView":51,
			"componentType":5123,
			"count":2592,
			"type":"SCALAR"
		},
		{
			"bufferView":52,
			"componentType":5126,
			"count":6030,
			"max":[
				0.6371150016784668,
				1.8435900211334229,
				-0.2826490104198456
			],
			"min":[
				-0.6371150016784668,
				-0.5116860270500183,
				-1.0925430059432983
			],
			"type":"VEC3"
		},
		{
			"bufferView":53,
			"componentType":5126,
			"count":6030,
			"type":"VEC3"
		},
		{
			"bufferView":54,
			"componentType":5126,
			"count":6030,
			"type":"VEC2"
		},
		{
			"bufferView":55,
			"componentType":5123,
			"count":25647,
			"type":"SCALAR"
		},
		{
			"bufferView":56,
			"componentType":5126,
			"count":135,
			"max":[
				0.388386994600296,
				-0.6301029920578003,
				-0.28005000948905945
			],
			"min":[
				-0.388386994600296,
				-1.1711859703063965,
				-0.7229940295219421
			],
			"type":"VEC3"
		},
		{
			"bufferView":57,
			"componentType":5126,
			"count":135,
			"type":"VEC3"
		},
		{
			"bufferView":58,
			"componentType":5126,
			"count":135,
			"type":"VEC2"
		},
		{
			"bufferView":59,
			"componentType":5123,
			"count":552,
			"type":"SCALAR"
		},
		{
			"bufferView":60,
			"componentType":5126,
			"count":199,
			"max":[
				0.1592870056629181,
				0.8235099911689758,
				-0.8428760170936584
			],
			"min":[
				-0.15951700508594513,
				0.6505060195922852,
				-0.87323397397995
			],
			"type":"VEC3"
		},
		{
			"bufferView":61,
			"componentType":5126,
			"count":199,
			"type":"VEC3"
		},
		{
			"bufferView":62,
			"componentType":5126,
			"count":199,
			"type":"VEC2"
		},
		{
			"bufferView":63,
			"componentType":5123,
			"count":594,
			"type":"SCALAR"
		},
		{
			"bufferView":64,
			"componentType":5126,
			"count":42989,
			"max":[
				0.8619629740715027,
				1.0562900304794312,
				-0.09374599903821945
			],
			"min":[
				-0.8619629740715027,
				-1.8474889993667603,
				-1.2564899921417236
			],
			"type":"VEC3"
		},
		{
			"bufferView":65,
			"componentType":5126,
			"count":42989,
			"type":"VEC3"
		},
		{
			"bufferView":66,
			"componentType":5126,
			"count":42989,
			"type":"VEC2"
		},
		{
			"bufferView":67,
			"componentType":5123,
			"count":159309,
			"type":"SCALAR"
		},
		{
			"bufferView":68,
			"componentType":5126,
			"count":56,
			"max":[
				0.5193250179290771,
				0.6310210227966309,
				-0.7425929307937622
			],
			"min":[
				-0.12682700157165527,
				0.505765974521637,
				-0.8465549945831299
			],
			"type":"VEC3"
		},
		{
			"bufferView":69,
			"componentType":5126,
			"count":56,
			"type":"VEC3"
		},
		{
			"bufferView":70,
			"componentType":5126,
			"count":56,
			"type":"VEC2"
		},
		{
			"bufferView":71,
			"componentType":5123,
			"count":198,
			"type":"SCALAR"
		},
		{
			"bufferView":72,
			"componentType":5126,
			"count":389,
			"max":[
				0.5960609912872314,
				-2.1407968997955322,
				-0.8839079737663269
			],
			"min":[
				-0.5960609912872314,
				-2.2980380058288574,
				-0.9304310083389282
			],
			"type":"VEC3"
		},
		{
			"bufferView":73,
			"componentType":5126,
			"count":389,
			"type":"VEC3"
		},
		{
			"bufferView":74,
			"componentType":5126,
			"count":389,
			"type":"VEC2"
		},
		{
			"bufferView":75,
			"componentType":5123,
			"count":2064,
			"type":"SCALAR"
		},
		{
			"bufferView":76,
			"componentType":5126,
			"count":1374,
			"max":[
				0.6062420010566711,
				-1.7686699628829956,
				-0.5205169916152954
			],
			"min":[
				-0.6062420010566711,
				-2.315023899078369,
				-0.9561020135879517
			],
			"type":"VEC3"
		},
		{
			"bufferView":77,
			"componentType":5126,
			"count":1374,
			"type":"VEC3"
		},
		{
			"bufferView":78,
			"componentType":5126,
			"count":1374,
			"type":"VEC2"
		},
		{
			"bufferView":79,
			"componentType":5123,
			"count":6822,
			"type":"SCALAR"
		},
		{
			"bufferView":80,
			"componentType":5126,
			"count":20,
			"max":[
				0.5087379813194275,
				-1.6689480543136597,
				-0.4278480112552643
			],
			"min":[
				-0.5087379813194275,
				-2.0855720043182373,
				-0.5222910046577454
			],
			"type":"VEC3"
		},
		{
			"bufferView":81,
			"componentType":5126,
			"count":20,
			"type":"VEC3"
		},
		{
			"bufferView":82,
			"componentType":5126,
			"count":20,
			"type":"VEC2"
		},
		{
			"bufferView":83,
			"componentType":5123,
			"count":42,
			"type":"SCALAR"
		},
		{
			"bufferView":84,
			"componentType":5126,
			"count":97,
			"max":[
				0.7394009828567505,
				0.583441972732544,
				-0.817874014377594
			],
			"min":[
				-0.7394009828567505,
				0.4850749969482422,
				-0.9065120220184326
			],
			"type":"VEC3"
		},
		{
			"bufferView":85,
			"componentType":5126,
			"count":97,
			"type":"VEC3"
		},
		{
			"bufferView":86,
			"componentType":5126,
			"count":97,
			"type":"VEC2"
		},
		{
			"bufferView":87,
			"componentType":5123,
			"count":372,
			"type":"SCALAR"
		},
		{
			"bufferView":88,
			"componentType":5126,
			"count":88,
			"max":[
				0.6712319850921631,
				1.3757350444793701,
				-0.7204980254173279
			],
			"min":[
				-0.6750059723854065,
				0.5955060124397278,
				-0.8540539741516113
			],
			"type":"VEC3"
		},
		{
			"bufferView":89,
			"componentType":5126,
			"count":88,
			"type":"VEC3"
		},
		{
			"bufferView":90,
			"componentType":5126,
			"count":88,
			"type":"VEC2"
		},
		{
			"bufferView":91,
			"componentType":5123,
			"count":222,
			"type":"SCALAR"
		},
		{
			"bufferView":92,
			"componentType":5126,
			"count":361,
			"max":[
				0.8101819753646851,
				2.353468894958496,
				-0.23510600626468658
			],
			"min":[
				-0.8106920123100281,
				-2.3215529918670654,
				-0.871317982673645
			],
			"type":"VEC3"
		},
		{
			"bufferView":93,
			"componentType":5126,
			"count":361,
			"type":"VEC3"
		},
		{
			"bufferView":94,
			"componentType":5126,
			"count":361,
			"type":"VEC2"
		},
		{
			"bufferView":95,
			"componentType":5123,
			"count":1047,
			"type":"SCALAR"
		},
		{
			"bufferView":96,
			"componentType":5126,
			"count":1321,
			"max":[
				0.9016109704971313,
				2.341916084289551,
				0.0013089999556541443
			],
			"min":[
				-0.9016109704971313,
				-2.281769037246704,
				-1.1900349855422974
			],
			"type":"VEC3"
		},
		{
			"bufferView":97,
			"componentType":5126,
			"count":1321,
			"type":"VEC3"
		},
		{
			"bufferView":98,
			"componentType":5123,
			"count":3744,
			"type":"SCALAR"
		},
		{
			"bufferView":99,
			"componentType":5126,
			"count":21286,
			"max":[
				1.0420069694519043,
				1.080219030380249,
				-0.10778599977493286
			],
			"min":[
				-1.0420069694519043,
				-2.3214800357818604,
				-1.2677760124206543
			],
			"type":"VEC3"
		},
		{
			"bufferView":100,
			"componentType":5126,
			"count":21286,
			"type":"VEC3"
		},
		{
			"bufferView":101,
			"componentType":5126,
			"count":21286,
			"type":"VEC2"
		},
		{
			"bufferView":102,
			"componentType":5123,
			"count":84030,
			"type":"SCALAR"
		},
		{
			"bufferView":103,
			"componentType":5126,
			"count":15807,
			"max":[
				1.0405490398406982,
				2.2746880054473877,
				-0.46724599599838257
			],
			"min":[
				-1.0405490398406982,
				-2.27673602104187,
				-1.1537059545516968
			],
			"type":"VEC3"
		},
		{
			"bufferView":104,
			"componentType":5126,
			"count":15807,
			"type":"VEC3"
		},
		{
			"bufferView":105,
			"componentType":5126,
			"count":15807,
			"type":"VEC2"
		},
		{
			"bufferView":106,
			"componentType":5123,
			"count":48072,
			"type":"SCALAR"
		},
		{
			"bufferView":107,
			"componentType":5126,
			"count":110,
			"max":[
				0.15240000188350677,
				-2.2311980724334717,
				-0.59859299659729
			],
			"min":[
				-0.15240000188350677,
				-2.272763967514038,
				-0.745943009853363
			],
			"type":"VEC3"
		},
		{
			"bufferView":108,
			"componentType":5126,
			"count":110,
			"type":"VEC3"
		},
		{
			"bufferView":109,
			"componentType":5126,
			"count":110,
			"type":"VEC2"
		},
		{
			"bufferView":110,
			"componentType":5123,
			"count":384,
			"type":"SCALAR"
		},
		{
			"bufferView":111,
			"componentType":5126,
			"count":11529,
			"max":[
				0.9396100044250488,
				2.354748010635376,
				-0.11032000184059143
			],
			"min":[
				-0.9396100044250488,
				-2.283968925476074,
				-1.2565460205078125
			],
			"type":"VEC3"
		},
		{
			"bufferView":112,
			"componentType":5126,
			"count":11529,
			"type":"VEC3"
		},
		{
			"bufferView":113,
			"componentType":5126,
			"count":11529,
			"type":"VEC2"
		},
		{
			"bufferView":114,
			"componentType":5123,
			"count":45873,
			"type":"SCALAR"
		},
		{
			"bufferView":115,
			"componentType":5126,
			"count":359,
			"max":[
				0.5334540009498596,
				0.28038498759269714,
				-1.1496299505233765
			],
			"min":[
				-0.5334540009498596,
				-1.1547139883041382,
				-1.2847980260849
			],
			"type":"VEC3"
		},
		{
			"bufferView":116,
			"componentType":5126,
			"count":359,
			"type":"VEC3"
		},
		{
			"bufferView":117,
			"componentType":5126,
			"count":359,
			"type":"VEC2"
		},
		{
			"bufferView":118,
			"componentType":5123,
			"count":1962,
			"type":"SCALAR"
		},
		{
			"bufferView":119,
			"componentType":5126,
			"count":2106,
			"max":[
				1.0419039726257324,
				2.2771389484405518,
				-0.4701229929924011
			],
			"min":[
				-1.0419039726257324,
				-2.27673602104187,
				-1.1900349855422974
			],
			"type":"VEC3"
		},
		{
			"bufferView":120,
			"componentType":5126,
			"count":2106,
			"type":"VEC3"
		},
		{
			"bufferView":121,
			"componentType":5126,
			"count":2106,
			"type":"VEC2"
		},
		{
			"bufferView":122,
			"componentType":5123,
			"count":6915,
			"type":"SCALAR"
		},
		{
			"bufferView":123,
			"componentType":5126,
			"count":690,
			"max":[
				0.8307390213012695,
				-1.816715955734253,
				-0.6665589809417725
			],
			"min":[
				-0.8307390213012695,
				-2.2726199626922607,
				-0.7977010011672974
			],
			"type":"VEC3"
		},
		{
			"bufferView":124,
			"componentType":5126,
			"count":690,
			"type":"VEC3"
		},
		{
			"bufferView":125,
			"componentType":5126,
			"count":690,
			"type":"VEC2"
		},
		{
			"bufferView":126,
			"componentType":5123,
			"count":2958,
			"type":"SCALAR"
		},
		{
			"bufferView":127,
			"componentType":5126,
			"count":493,
			"max":[
				0.7611560225486755,
				1.0226939916610718,
				-0.793632984161377
			],
			"min":[
				-0.7611560225486755,
				-1.8878740072250366,
				-1.211061954498291
			],
			"type":"VEC3"
		},
		{
			"bufferView":128,
			"componentType":5126,
			"count":493,
			"type":"VEC3"
		},
		{
			"bufferView":129,
			"componentType":5126,
			"count":493,
			"type":"VEC2"
		},
		{
			"bufferView":130,
			"componentType":5123,
			"count":1689,
			"type":"SCALAR"
		},
		{
			"bufferView":131,
			"componentType":5126,
			"count":437,
			"max":[
				0.6783130168914795,
				-0.22271299362182617,
				-0.16965100169181824
			],
			"min":[
				0.624284029006958,
				-0.48851001262664795,
				-0.8903719782829285
			],
			"type":"VEC3"
		},
		{
			"bufferView":132,
			"componentType":5126,
			"count":437,
			"type":"VEC3"
		},
		{
			"bufferView":133,
			"componentType":5126,
			"count":437,
			"type":"VEC2"
		},
		{
			"bufferView":134,
			"componentType":5123,
			"count":1194,
			"type":"SCALAR"
		},
		{
			"bufferView":135,
			"componentType":5126,
			"count":136,
			"max":[
				0.8228179812431335,
				2.1884729862213135,
				-0.48060598969459534
			],
			"min":[
				-0.8228179812431335,
				1.9699180126190186,
				-0.5903800129890442
			],
			"type":"VEC3"
		},
		{
			"bufferView":136,
			"componentType":5126,
			"count":136,
			"type":"VEC3"
		},
		{
			"bufferView":137,
			"componentType":5126,
			"count":136,
			"type":"VEC2"
		},
		{
			"bufferView":138,
			"componentType":5123,
			"count":378,
			"type":"SCALAR"
		},
		{
			"bufferView":139,
			"componentType":5126,
			"count":8,
			"max":[
				0.9087409973144531,
				1.0589679479599,
				-0.5558580160140991
			],
			"min":[
				-0.9092730283737183,
				0.9951750040054321,
				-0.5783389806747437
			],
			"type":"VEC3"
		},
		{
			"bufferView":140,
			"componentType":5126,
			"count":8,
			"type":"VEC3"
		},
		{
			"bufferView":141,
			"componentType":5126,
			"count":8,
			"type":"VEC2"
		},
		{
			"bufferView":142,
			"componentType":5123,
			"count":12,
			"type":"SCALAR"
		},
		{
			"bufferView":143,
			"componentType":5126,
			"count":1300,
			"max":[
				4.414282321929932,
				3.0623323917388916,
				10.0343017578125
			],
			"min":[
				-4.414282321929932,
				2.4371981620788574,
				8.409570693969727
			],
			"type":"VEC3"
		},
		{
			"bufferView":144,
			"componentType":5126,
			"count":1300,
			"type":"VEC3"
		},
		{
			"bufferView":145,
			"componentType":5126,
			"count":1300,
			"type":"VEC2"
		},
		{
			"bufferView":146,
			"componentType":5123,
			"count":5664,
			"type":"SCALAR"
		},
		{
			"bufferView":147,
			"componentType":5126,
			"count":5421,
			"max":[
				4.7589616775512695,
				2.077406406402588,
				-8.029111862182617
			],
			"min":[
				-4.758962154388428,
				0.5112128257751465,
				-11.58861255645752
			],
			"type":"VEC3"
		},
		{
			"bufferView":148,
			"componentType":5126,
			"count":5421,
			"type":"VEC3"
		},
		{
			"bufferView":149,
			"componentType":5126,
			"count":5421,
			"type":"VEC2"
		},
		{
			"bufferView":150,
			"componentType":5123,
			"count":29304,
			"type":"SCALAR"
		},
		{
			"bufferView":151,
			"componentType":5126,
			"count":45,
			"max":[
				0.20591741800308228,
				1.4546953439712524,
				-11.417485237121582
			],
			"min":[
				-0.20591741800308228,
				0.8955650925636292,
				-11.47313117980957
			],
			"type":"VEC3"
		},
		{
			"bufferView":152,
			"componentType":5126,
			"count":45,
			"type":"VEC3"
		},
		{
			"bufferView":153,
			"componentType":5126,
			"count":45,
			"type":"VEC2"
		},
		{
			"bufferView":154,
			"componentType":5123,
			"count":192,
			"type":"SCALAR"
		},
		{
			"bufferView":155,
			"componentType":5126,
			"count":840,
			"max":[
				0.18425799906253815,
				1.4122183322906494,
				-11.2999849319458
			],
			"min":[
				-0.18425799906253815,
				0.9694811105728149,
				-11.372517585754395
			],
			"type":"VEC3"
		},
		{
			"bufferView":156,
			"componentType":5126,
			"count":840,
			"type":"VEC3"
		},
		{
			"bufferView":157,
			"componentType":5126,
			"count":840,
			"type":"VEC2"
		},
		{
			"bufferView":158,
			"componentType":5123,
			"count":2160,
			"type":"SCALAR"
		},
		{
			"bufferView":159,
			"componentType":5126,
			"count":12,
			"max":[
				0.21153929829597473,
				1.4551432132720947,
				-11.316620826721191
			],
			"min":[
				-0.21153929829597473,
				0.8953891396522522,
				-11.369499206542969
			],
			"type":"VEC3"
		},
		{
			"bufferView":160,
			"componentType":5126,
			"count":12,
			"type":"VEC3"
		},
		{
			"bufferView":161,
			"componentType":5126,
			"count":12,
			"type":"VEC2"
		},
		{
			"bufferView":162,
			"componentType":5123,
			"count":36,
			"type":"SCALAR"
		},
		{
			"bufferView":163,
			"componentType":5126,
			"count":933,
			"max":[
				3.7912867069244385,
				2.876575469970703,
				-9.102262496948242
			],
			"min":[
				-3.7912869453430176,
				0.8578563332557678,
				-10.389229774475098
			],
			"type":"VEC3"
		},
		{
			"bufferView":164,
			"componentType":5126,
			"count":933,
			"type":"VEC3"
		},
		{
			"bufferView":165,
			"componentType":5126,
			"count":933,
			"type":"VEC2"
		},
		{
			"bufferView":166,
			"componentType":5123,
			"count":1152,
			"type":"SCALAR"
		},
		{
			"bufferView":167,
			"componentType":5126,
			"count":300,
			"max":[
				4.581441879272461,
				3.3346304893493652,
				6.851346015930176
			],
			"min":[
				-4.581441879272461,
				0.9006552696228027,
				4.5000505447387695
			],
			"type":"VEC3"
		},
		{
			"bufferView":168,
			"componentType":5126,
			"count":300,
			"type":"VEC3"
		},
		{
			"bufferView":169,
			"componentType":5126,
			"count":300,
			"type":"VEC2"
		},
		{
			"bufferView":170,
			"componentType":5123,
			"count":1008,
			"type":"SCALAR"
		},
		{
			"bufferView":171,
			"componentType":5126,
			"count":640,
			"max":[
				2.9583044052124023,
				1.6049466133117676,
				-9.478236198425293
			],
			"min":[
				-2.9583044052124023,
				1.1972739696502686,
				-11.653324127197266
			],
			"type":"VEC3"
		},
		{
			"bufferView":172,
			"componentType":5126,
			"count":640,
			"type":"VEC3"
		},
		{
			"bufferView":173,
			"componentType":5126,
			"count":640,
			"type":"VEC2"
		},
		{
			"bufferView":174,
			"componentType":5123,
			"count":3600,
			"type":"SCALAR"
		},
		{
			"bufferView":175,
			"componentType":5126,
			"count":1444,
			"max":[
				4.200804233551025,
				2.940119743347168,
				-9.153292655944824
			],
			"min":[
				-4.200804233551025,
				0.8667896389961243,
				-10.554039001464844
			],
			"type":"VEC3"
		},
		{
			"bufferView":176,
			"componentType":5126,
			"count":1444,
			"type":"VEC3"
		},
		{
			"bufferView":177,
			"componentType":5126,
			"count":1444,
			"type":"VEC2"
		},
		{
			"bufferView":178,
			"componentType":5123,
			"count":7608,
			"type":"SCALAR"
		},
		{
			"bufferView":179,
			"componentType":5126,
			"count":14,
			"max":[
				2.9860894680023193,
				2.728659152984619,
				10.486348152160645
			],
			"min":[
				-2.9849259853363037,
				0.2079738974571228,
				9.566728591918945
			],
			"type":"VEC3"
		},
		{
			"bufferView":180,
			"componentType":5126,
			"count":14,
			"type":"VEC3"
		},
		{
			"bufferView":181,
			"componentType":5126,
			"count":14,
			"type":"VEC2"
		},
		{
			"bufferView":182,
			"componentType":5123,
			"count":24,
			"type":"SCALAR"
		},
		{
			"bufferView":183,
			"componentType":5126,
			"count":51675,
			"max":[
				7.57403564453125,
				-3.0262999534606934,
				-10.796586036682129
			],
			"min":[
				-7.57403564453125,
				-5.623046398162842,
				-12.728731155395508
			],
			"type":"VEC3"
		},
		{
			"bufferView":184,
			"componentType":5126,
			"count":51675,
			"type":"VEC3"
		},
		{
			"bufferView":185,
			"componentType":5126,
			"count":51675,
			"type":"VEC2"
		},
		{
			"bufferView":186,
			"componentType":5123,
			"count":193368,
			"type":"SCALAR"
		},
		{
			"bufferView":187,
			"componentType":5126,
			"count":9543,
			"max":[
				4.631657600402832,
				1.994441032409668,
				7.775599002838135
			],
			"min":[
				-4.631657600402832,
				1.195436954498291,
				6.976594924926758
			],
			"type":"VEC3"
		},
		{
			"bufferView":188,
			"componentType":5126,
			"count":9543,
			"type":"VEC3"
		},
		{
			"bufferView":189,
			"componentType":5126,
			"count":9543,
			"type":"VEC2"
		},
		{
			"bufferView":190,
			"componentType":5123,
			"count":44040,
			"type":"SCALAR"
		},
		{
			"bufferView":191,
			"componentType":5126,
			"count":14442,
			"max":[
				3.9626851081848145,
				2.569925308227539,
				8.350615501403809
			],
			"min":[
				-3.9626851081848145,
				0.6199527978897095,
				6.400642395019531
			],
			"type":"VEC3"
		},
		{
			"bufferView":192,
			"componentType":5126,
			"count":14442,
			"type":"VEC3"
		},
		{
			"bufferView":193,
			"componentType":5126,
			"count":14442,
			"type":"VEC2"
		},
		{
			"bufferView":194,
			"componentType":5123,
			"count":78048,
			"type":"SCALAR"
		},
		{
			"bufferView":195,
			"componentType":5126,
			"count":21536,
			"max":[
				4.894007205963135,
				3.0536746978759766,
				8.834359169006348
			],
			"min":[
				-4.894007205963135,
				0.13620346784591675,
				5.916888236999512
			],
			"type":"VEC3"
		},
		{
			"bufferView":196,
			"componentType":5126,
			"count":21536,
			"type":"VEC3"
		},
		{
			"bufferView":197,
			"componentType":5126,
			"count":21536,
			"type":"VEC2"
		},
		{
			"bufferView":198,
			"componentType":5123,
			"count":128280,
			"type":"SCALAR"
		},
		{
			"bufferView":199,
			"componentType":5126,
			"count":1530,
			"max":[
				4.54889440536499,
				1.8891907930374146,
				7.6524224281311035
			],
			"min":[
				-4.54889440536499,
				1.350148320198059,
				7.092722415924072
			],
			"type":"VEC3"
		},
		{
			"bufferView":200,
			"componentType":5126,
			"count":1530,
			"type":"VEC3"
		},
		{
			"bufferView":201,
			"componentType":5126,
			"count":1530,
			"type":"VEC2"
		},
		{
			"bufferView":202,
			"componentType":5123,
			"count":5616,
			"type":"SCALAR"
		},
		{
			"bufferView":203,
			"componentType":5126,
			"count":830,
			"max":[
				4.8827948570251465,
				3.227077007293701,
				9.008485794067383
			],
			"min":[
				-4.8827948570251465,
				-0.0433463454246521,
				5.740847110748291
			],
			"type":"VEC3"
		},
		{
			"bufferView":204,
			"componentType":5126,
			"count":830,
			"type":"VEC3"
		},
		{
			"bufferView":205,
			"componentType":5126,
			"count":830,
			"type":"VEC2"
		},
		{
			"bufferView":206,
			"componentType":5123,
			"count":3444,
			"type":"SCALAR"
		},
		{
			"bufferView":207,
			"componentType":5126,
			"count":9843,
			"max":[
				4.631658554077148,
				1.994441270828247,
				-5.984799861907959
			],
			"min":[
				-4.631658554077148,
				1.195436954498291,
				-6.783803939819336
			],
			"type":"VEC3"
		},
		{
			"bufferView":208,
			"componentType":5126,
			"count":9843,
			"type":"VEC3"
		},
		{
			"bufferView":209,
			"componentType":5126,
			"count":9843,
			"type":"VEC2"
		},
		{
			"bufferView":210,
			"componentType":5123,
			"count":44040,
			"type":"SCALAR"
		},
		{
			"bufferView":211,
			"componentType":5126,
			"count":14456,
			"max":[
				3.9626858234405518,
				2.569925546646118,
				-5.409783840179443
			],
			"min":[
				-3.9626858234405518,
				0.619952917098999,
				-7.3597564697265625
			],
			"type":"VEC3"
		},
		{
			"bufferView":212,
			"componentType":5126,
			"count":14456,
			"type":"VEC3"
		},
		{
			"bufferView":213,
			"componentType":5126,
			"count":14456,
			"type":"VEC2"
		},
		{
			"bufferView":214,
			"componentType":5123,
			"count":78048,
			"type":"SCALAR"
		},
		{
			"bufferView":215,
			"componentType":5126,
			"count":21536,
			"max":[
				4.894008159637451,
				3.0536749362945557,
				-4.926040172576904
			],
			"min":[
				-4.894008159637451,
				0.1362035870552063,
				-7.84351110458374
			],
			"type":"VEC3"
		},
		{
			"bufferView":216,
			"componentType":5126,
			"count":21536,
			"type":"VEC3"
		},
		{
			"bufferView":217,
			"componentType":5126,
			"count":21536,
			"type":"VEC2"
		},
		{
			"bufferView":218,
			"componentType":5126,
			"count":1530,
			"max":[
				4.548895359039307,
				1.889190912246704,
				-6.107976913452148
			],
			"min":[
				-4.548895359039307,
				1.3501484394073486,
				-6.6676764488220215
			],
			"type":"VEC3"
		},
		{
			"bufferView":219,
			"componentType":5126,
			"count":1530,
			"type":"VEC3"
		},
		{
			"bufferView":220,
			"componentType":5126,
			"count":1530,
			"type":"VEC2"
		},
		{
			"bufferView":221,
			"componentType":5123,
			"count":5616,
			"type":"SCALAR"
		},
		{
			"bufferView":222,
			"componentType":5126,
			"count":830,
			"max":[
				4.882795333862305,
				3.227077007293701,
				-4.751913547515869
			],
			"min":[
				-4.882795333862305,
				-0.04334619641304016,
				-8.019551277160645
			],
			"type":"VEC3"
		},
		{
			"bufferView":223,
			"componentType":5126,
			"count":830,
			"type":"VEC3"
		},
		{
			"bufferView":224,
			"componentType":5126,
			"count":830,
			"type":"VEC2"
		},
		{
			"bufferView":225,
			"componentType":5126,
			"count":100,
			"max":[
				4.639909267425537,
				0.7103027105331421,
				5.668826580047607
			],
			"min":[
				-4.639909267425537,
				0.41387611627578735,
				-2.3836121559143066
			],
			"type":"VEC3"
		},
		{
			"bufferView":226,
			"componentType":5126,
			"count":100,
			"type":"VEC3"
		},
		{
			"bufferView":227,
			"componentType":5126,
			"count":100,
			"type":"VEC2"
		},
		{
			"bufferView":228,
			"componentType":5123,
			"count":432,
			"type":"SCALAR"
		},
		{
			"bufferView":229,
			"componentType":5126,
			"count":304,
			"max":[
				4.672583103179932,
				3.060157299041748,
				9.255818367004395
			],
			"min":[
				-4.672583103179932,
				0.07046384364366531,
				-8.35110092163086
			],
			"type":"VEC3"
		},
		{
			"bufferView":230,
			"componentType":5126,
			"count":304,
			"type":"VEC3"
		},
		{
			"bufferView":231,
			"componentType":5126,
			"count":304,
			"type":"VEC2"
		},
		{
			"bufferView":232,
			"componentType":5123,
			"count":552,
			"type":"SCALAR"
		},
		{
			"bufferView":233,
			"componentType":5126,
			"count":51675,
			"max":[
				7.57403564453125,
				-3.0262999534606934,
				-10.796586036682129
			],
			"min":[
				-7.57403564453125,
				-5.623046398162842,
				-12.728731155395508
			],
			"type":"VEC3"
		},
		{
			"bufferView":234,
			"componentType":5126,
			"count":51675,
			"type":"VEC3"
		},
		{
			"bufferView":235,
			"componentType":5126,
			"count":51675,
			"type":"VEC2"
		},
		{
			"bufferView":236,
			"componentType":5126,
			"count":458,
			"max":[
				0.902071475982666,
				2.2392001152038574,
				11.692342758178711
			],
			"min":[
				-0.9020715355873108,
				1.7970434427261353,
				11.606378555297852
			],
			"type":"VEC3"
		},
		{
			"bufferView":237,
			"componentType":5126,
			"count":458,
			"type":"VEC3"
		},
		{
			"bufferView":238,
			"componentType":5126,
			"count":458,
			"type":"VEC2"
		},
		{
			"bufferView":239,
			"componentType":5123,
			"count":2736,
			"type":"SCALAR"
		}
	],
	"bufferViews":[
		{
			"buffer":0,
			"byteLength":56712,
			"byteOffset":0,
			"target":34962
		},
		{
			"buffer":0,
			"byteLength":56712,
			"byteOffset":56712,
			"target":34962
		},
		{
			"buffer":0,
			"byteLength":37808,
			"byteOffset":113424,
			"target":34962
		},
		{
			"buffer":0,
			"byteLength":52368,
			"byteOffset":151232,
			"target":34963
		},
		{
			"buffer":0,
			"byteLength":17580,
			"byteOffset":203600,
			"target":34962
		},
		{
			"buffer":0,
			"byteLength":17580,
			"byteOffset":221180,
			"target":34962
		},
		{
			"buffer":0,
			"byteLength":11720,
			"byteOffset":238760,
			"target":34962
		},
		{
			"buffer":0,
			"byteLength":16680,
			"byteOffset":250480,
			"target":34963
		},
		{
			"buffer":0,
			"byteLength":6984,
			"byteOffset":267160,
			"target":34962
		},
		{
			"buffer":0,
			"byteLength":6984,
			"byteOffset":274144,
			"target":34962
		},
		{
			"buffer":0,
			"byteLength":4656,
			"byteOffset":281128,
			"target":34962
		},
		{
			"buffer":0,
			"byteLength":4608,
			"byteOffset":285784,
			"target":34963
		},
		{
			"buffer":0,
			"byteLength":4536,
			"byteOffset":290392,
			"target":34962
		},
		{
			"buffer":0,
			"byteLength":4536,
			"byteOffset":294928,
			"target":34962
		},
		{
			"buffer":0,
			"byteLength":3024,
			"byteOffset":299464,
			"target":34962
		},
		{
			"buffer":0,
			"byteLength":3840,
			"byteOffset":302488,
			"target":34963
		},
		{
			"buffer":0,
			"byteLength":6720,
			"byteOffset":306328,
			"target":34962
		},
		{
			"buffer":0,
			"byteLength":6720,
			"byteOffset":313048,
			"target":34962
		},
		{
			"buffer":0,
			"byteLength":4480,
			"byteOffset":319768,
			"target":34962
		},
		{
			"buffer":0,
			"byteLength":6480,
			"byteOffset":324248,
			"target":34963
		},
		{
			"buffer":0,
			"byteLength":36804,
			"byteOffset":330728,
			"target":34962
		},
		{
			"buffer":0,
			"byteLength":36804,
			"byteOffset":367532,
			"target":34962
		},
		{
			"buffer":0,
			"byteLength":24536,
			"byteOffset":404336,
			"target":34962
		},
		{
			"buffer":0,
			"byteLength":33792,
			"byteOffset":428872,
			"target":34963
		},
		{
			"buffer":0,
			"byteLength":9696,
			"byteOffset":462664,
			"target":34962
		},
		{
			"buffer":0,
			"byteLength":9696,
			"byteOffset":472360,
			"target":34962
		},
		{
			"buffer":0,
			"byteLength":6464,
			"byteOffset":482056,
			"target":34962
		},
		{
			"buffer":0,
			"byteLength":8208,
			"byteOffset":488520,
			"target":34963
		},
		{
			"buffer":0,
			"byteLength":123876,
			"byteOffset":496728,
			"target":34962
		},
		{
			"buffer":0,
			"byteLength":123876,
			"byteOffset":620604,
			"target":34962
		},
		{
			"buffer":0,
			"byteLength":82584,
			"byteOffset":744480,
			"target":34962
		},
		{
			"buffer":0,
			"byteLength":122112,
			"byteOffset":827064,
			"target":34963
		},
		{
			"buffer":0,
			"byteLength":27480,
			"byteOffset":949176,
			"target":34962
		},
		{
			"buffer":0,
			"byteLength":27480,
			"byteOffset":976656,
			"target":34962
		},
		{
			"buffer":0,
			"byteLength":18320,
			"byteOffset":1004136,
			"target":34962
		},
		{
			"buffer":0,
			"byteLength":27456,
			"byteOffset":1022456,
			"target":34963
		},
		{
			"buffer":0,
			"byteLength":59112,
			"byteOffset":1049912,
			"target":34962
		},
		{
			"buffer":0,
			"byteLength":59112,
			"byteOffset":1109024,
			"target":34962
		},
		{
			"buffer":0,
			"byteLength":39408,
			"byteOffset":1168136,
			"target":34962
		},
		{
			"buffer":0,
			"byteLength":14880,
			"byteOffset":1207544,
			"target":34963
		},
		{
			"buffer":0,
			"byteLength":6720,
			"byteOffset":1222424,
			"target":34962
		},
		{
			"buffer":0,
			"byteLength":6720,
			"byteOffset":1229144,
			"target":34962
		},
		{
			"buffer":0,
			"byteLength":4480,
			"byteOffset":1235864,
			"target":34962
		},
		{
			"buffer":0,
			"byteLength":5472,
			"byteOffset":1240344,
			"target":34963
		},
		{
			"buffer":0,
			"byteLength":396384,
			"byteOffset":1245816,
			"target":34962
		},
		{
			"buffer":0,
			"byteLength":396384,
			"byteOffset":1642200,
			"target":34962
		},
		{
			"buffer":0,
			"byteLength":264256,
			"byteOffset":2038584,
			"target":34962
		},
		{
			"buffer":0,
			"byteLength":195288,
			"byteOffset":2302840,
			"target":34963
		},
		{
			"buffer":0,
			"byteLength":9984,
			"byteOffset":2498128,
			"target":34962
		},
		{
			"buffer":0,
			"byteLength":9984,
			"byteOffset":2508112,
			"target":34962
		},
		{
			"buffer":0,
			"byteLength":6656,
			"byteOffset":2518096,
			"target":34962
		},
		{
			"buffer":0,
			"byteLength":5184,
			"byteOffset":2524752,
			"target":34963
		},
		{
			"buffer":0,
			"byteLength":72360,
			"byteOffset":2529936,
			"target":34962
		},
		{
			"buffer":0,
			"byteLength":72360,
			"byteOffset":2602296,
			"target":34962
		},
		{
			"buffer":0,
			"byteLength":48240,
			"byteOffset":2674656,
			"target":34962
		},
		{
			"buffer":0,
			"byteLength":51294,
			"byteOffset":2722896,
			"target":34963
		},
		{
			"buffer":0,
			"byteLength":1620,
			"byteOffset":2774192,
			"target":34962
		},
		{
			"buffer":0,
			"byteLength":1620,
			"byteOffset":2775812,
			"target":34962
		},
		{
			"buffer":0,
			"byteLength":1080,
			"byteOffset":2777432,
			"target":34962
		},
		{
			"buffer":0,
			"byteLength":1104,
			"byteOffset":2778512,
			"target":34963
		},
		{
			"buffer":0,
			"byteLength":2388,
			"byteOffset":2779616,
			"target":34962
		},
		{
			"buffer":0,
			"byteLength":2388,
			"byteOffset":2782004,
			"target":34962
		},
		{
			"buffer":0,
			"byteLength":1592,
			"byteOffset":2784392,
			"target":34962
		},
		{
			"buffer":0,
			"byteLength":1188,
			"byteOffset":2785984,
			"target":34963
		},
		{
			"buffer":0,
			"byteLength":515868,
			"byteOffset":2787172,
			"target":34962
		},
		{
			"buffer":0,
			"byteLength":515868,
			"byteOffset":3303040,
			"target":34962
		},
		{
			"buffer":0,
			"byteLength":343912,
			"byteOffset":3818908,
			"target":34962
		},
		{
			"buffer":0,
			"byteLength":318618,
			"byteOffset":4162820,
			"target":34963
		},
		{
			"buffer":0,
			"byteLength":672,
			"byteOffset":4481440,
			"target":34962
		},
		{
			"buffer":0,
			"byteLength":672,
			"byteOffset":4482112,
			"target":34962
		},
		{
			"buffer":0,
			"byteLength":448,
			"byteOffset":4482784,
			"target":34962
		},
		{
			"buffer":0,
			"byteLength":396,
			"byteOffset":4483232,
			"target":34963
		},
		{
			"buffer":0,
			"byteLength":4668,
			"byteOffset":4483628,
			"target":34962
		},
		{
			"buffer":0,
			"byteLength":4668,
			"byteOffset":4488296,
			"target":34962
		},
		{
			"buffer":0,
			"byteLength":3112,
			"byteOffset":4492964,
			"target":34962
		},
		{
			"buffer":0,
			"byteLength":4128,
			"byteOffset":4496076,
			"target":34963
		},
		{
			"buffer":0,
			"byteLength":16488,
			"byteOffset":4500204,
			"target":34962
		},
		{
			"buffer":0,
			"byteLength":16488,
			"byteOffset":4516692,
			"target":34962
		},
		{
			"buffer":0,
			"byteLength":10992,
			"byteOffset":4533180,
			"target":34962
		},
		{
			"buffer":0,
			"byteLength":13644,
			"byteOffset":4544172,
			"target":34963
		},
		{
			"buffer":0,
			"byteLength":240,
			"byteOffset":4557816,
			"target":34962
		},
		{
			"buffer":0,
			"byteLength":240,
			"byteOffset":4558056,
			"target":34962
		},
		{
			"buffer":0,
			"byteLength":160,
			"byteOffset":4558296,
			"target":34962
		},
		{
			"buffer":0,
			"byteLength":84,
			"byteOffset":4558456,
			"target":34963
		},
		{
			"buffer":0,
			"byteLength":1164,
			"byteOffset":4558540,
			"target":34962
		},
		{
			"buffer":0,
			"byteLength":1164,
			"byteOffset":4559704,
			"target":34962
		},
		{
			"buffer":0,
			"byteLength":776,
			"byteOffset":4560868,
			"target":34962
		},
		{
			"buffer":0,
			"byteLength":744,
			"byteOffset":4561644,
			"target":34963
		},
		{
			"buffer":0,
			"byteLength":1056,
			"byteOffset":4562388,
			"target":34962
		},
		{
			"buffer":0,
			"byteLength":1056,
			"byteOffset":4563444,
			"target":34962
		},
		{
			"buffer":0,
			"byteLength":704,
			"byteOffset":4564500,
			"target":34962
		},
		{
			"buffer":0,
			"byteLength":444,
			"byteOffset":4565204,
			"target":34963
		},
		{
			"buffer":0,
			"byteLength":4332,
			"byteOffset":4565648,
			"target":34962
		},
		{
			"buffer":0,
			"byteLength":4332,
			"byteOffset":4569980,
			"target":34962
		},
		{
			"buffer":0,
			"byteLength":2888,
			"byteOffset":4574312,
			"target":34962
		},
		{
			"buffer":0,
			"byteLength":2094,
			"byteOffset":4577200,
			"target":34963
		},
		{
			"buffer":0,
			"byteLength":15852,
			"byteOffset":4579296,
			"target":34962
		},
		{
			"buffer":0,
			"byteLength":15852,
			"byteOffset":4595148,
			"target":34962
		},
		{
			"buffer":0,
			"byteLength":7488,
			"byteOffset":4611000,
			"target":34963
		},
		{
			"buffer":0,
			"byteLength":255432,
			"byteOffset":4618488,
			"target":34962
		},
		{
			"buffer":0,
			"byteLength":255432,
			"byteOffset":4873920,
			"target":34962
		},
		{
			"buffer":0,
			"byteLength":170288,
			"byteOffset":5129352,
			"target":34962
		},
		{
			"buffer":0,
			"byteLength":168060,
			"byteOffset":5299640,
			"target":34963
		},
		{
			"buffer":0,
			"byteLength":189684,
			"byteOffset":5467700,
			"target":34962
		},
		{
			"buffer":0,
			"byteLength":189684,
			"byteOffset":5657384,
			"target":34962
		},
		{
			"buffer":0,
			"byteLength":126456,
			"byteOffset":5847068,
			"target":34962
		},
		{
			"buffer":0,
			"byteLength":96144,
			"byteOffset":5973524,
			"target":34963
		},
		{
			"buffer":0,
			"byteLength":1320,
			"byteOffset":6069668,
			"target":34962
		},
		{
			"buffer":0,
			"byteLength":1320,
			"byteOffset":6070988,
			"target":34962
		},
		{
			"buffer":0,
			"byteLength":880,
			"byteOffset":6072308,
			"target":34962
		},
		{
			"buffer":0,
			"byteLength":768,
			"byteOffset":6073188,
			"target":34963
		},
		{
			"buffer":0,
			"byteLength":138348,
			"byteOffset":6073956,
			"target":34962
		},
		{
			"buffer":0,
			"byteLength":138348,
			"byteOffset":6212304,
			"target":34962
		},
		{
			"buffer":0,
			"byteLength":92232,
			"byteOffset":6350652,
			"target":34962
		},
		{
			"buffer":0,
			"byteLength":91746,
			"byteOffset":6442884,
			"target":34963
		},
		{
			"buffer":0,
			"byteLength":4308,
			"byteOffset":6534632,
			"target":34962
		},
		{
			"buffer":0,
			"byteLength":4308,
			"byteOffset":6538940,
			"target":34962
		},
		{
			"buffer":0,
			"byteLength":2872,
			"byteOffset":6543248,
			"target":34962
		},
		{
			"buffer":0,
			"byteLength":3924,
			"byteOffset":6546120,
			"target":34963
		},
		{
			"buffer":0,
			"byteLength":25272,
			"byteOffset":6550044,
			"target":34962
		},
		{
			"buffer":0,
			"byteLength":25272,
			"byteOffset":6575316,
			"target":34962
		},
		{
			"buffer":0,
			"byteLength":16848,
			"byteOffset":6600588,
			"target":34962
		},
		{
			"buffer":0,
			"byteLength":13830,
			"byteOffset":6617436,
			"target":34963
		},
		{
			"buffer":0,
			"byteLength":8280,
			"byteOffset":6631268,
			"target":34962
		},
		{
			"buffer":0,
			"byteLength":8280,
			"byteOffset":6639548,
			"target":34962
		},
		{
			"buffer":0,
			"byteLength":5520,
			"byteOffset":6647828,
			"target":34962
		},
		{
			"buffer":0,
			"byteLength":5916,
			"byteOffset":6653348,
			"target":34963
		},
		{
			"buffer":0,
			"byteLength":5916,
			"byteOffset":6659264,
			"target":34962
		},
		{
			"buffer":0,
			"byteLength":5916,
			"byteOffset":6665180,
			"target":34962
		},
		{
			"buffer":0,
			"byteLength":3944,
			"byteOffset":6671096,
			"target":34962
		},
		{
			"buffer":0,
			"byteLength":3378,
			"byteOffset":6675040,
			"target":34963
		},
		{
			"buffer":0,
			"byteLength":5244,
			"byteOffset":6678420,
			"target":34962
		},
		{
			"buffer":0,
			"byteLength":5244,
			"byteOffset":6683664,
			"target":34962
		},
		{
			"buffer":0,
			"byteLength":3496,
			"byteOffset":6688908,
			"target":34962
		},
		{
			"buffer":0,
			"byteLength":2388,
			"byteOffset":6692404,
			"target":34963
		},
		{
			"buffer":0,
			"byteLength":1632,
			"byteOffset":6694792,
			"target":34962
		},
		{
			"buffer":0,
			"byteLength":1632,
			"byteOffset":6696424,
			"target":34962
		},
		{
			"buffer":0,
			"byteLength":1088,
			"byteOffset":6698056,
			"target":34962
		},
		{
			"buffer":0,
			"byteLength":756,
			"byteOffset":6699144,
			"target":34963
		},
		{
			"buffer":0,
			"byteLength":96,
			"byteOffset":6699900,
			"target":34962
		},
		{
			"buffer":0,
			"byteLength":96,
			"byteOffset":6699996,
			"target":34962
		},
		{
			"buffer":0,
			"byteLength":64,
			"byteOffset":6700092,
			"target":34962
		},
		{
			"buffer":0,
			"byteLength":24,
			"byteOffset":6700156,
			"target":34963
		},
		{
			"buffer":0,
			"byteLength":15600,
			"byteOffset":6700180,
			"target":34962
		},
		{
			"buffer":0,
			"byteLength":15600,
			"byteOffset":6715780,
			"target":34962
		},
		{
			"buffer":0,
			"byteLength":10400,
			"byteOffset":6731380,
			"target":34962
		},
		{
			"buffer":0,
			"byteLength":11328,
			"byteOffset":6741780,
			"target":34963
		},
		{
			"buffer":0,
			"byteLength":65052,
			"byteOffset":6753108,
			"target":34962
		},
		{
			"buffer":0,
			"byteLength":65052,
			"byteOffset":6818160,
			"target":34962
		},
		{
			"buffer":0,
			"byteLength":43368,
			"byteOffset":6883212,
			"target":34962
		},
		{
			"buffer":0,
			"byteLength":58608,
			"byteOffset":6926580,
			"target":34963
		},
		{
			"buffer":0,
			"byteLength":540,
			"byteOffset":6985188,
			"target":34962
		},
		{
			"buffer":0,
			"byteLength":540,
			"byteOffset":6985728,
			"target":34962
		},
		{
			"buffer":0,
			"byteLength":360,
			"byteOffset":6986268,
			"target":34962
		},
		{
			"buffer":0,
			"byteLength":384,
			"byteOffset":6986628,
			"target":34963
		},
		{
			"buffer":0,
			"byteLength":10080,
			"byteOffset":6987012,
			"target":34962
		},
		{
			"buffer":0,
			"byteLength":10080,
			"byteOffset":6997092,
			"target":34962
		},
		{
			"buffer":0,
			"byteLength":6720,
			"byteOffset":7007172,
			"target":34962
		},
		{
			"buffer":0,
			"byteLength":4320,
			"byteOffset":7013892,
			"target":34963
		},
		{
			"buffer":0,
			"byteLength":144,
			"byteOffset":7018212,
			"target":34962
		},
		{
			"buffer":0,
			"byteLength":144,
			"byteOffset":7018356,
			"target":34962
		},
		{
			"buffer":0,
			"byteLength":96,
			"byteOffset":7018500,
			"target":34962
		},
		{
			"buffer":0,
			"byteLength":72,
			"byteOffset":7018596,
			"target":34963
		},
		{
			"buffer":0,
			"byteLength":11196,
			"byteOffset":7018668,
			"target":34962
		},
		{
			"buffer":0,
			"byteLength":11196,
			"byteOffset":7029864,
			"target":34962
		},
		{
			"buffer":0,
			"byteLength":7464,
			"byteOffset":7041060,
			"target":34962
		},
		{
			"buffer":0,
			"byteLength":2304,
			"byteOffset":7048524,
			"target":34963
		},
		{
			"buffer":0,
			"byteLength":3600,
			"byteOffset":7050828,
			"target":34962
		},
		{
			"buffer":0,
			"byteLength":3600,
			"byteOffset":7054428,
			"target":34962
		},
		{
			"buffer":0,
			"byteLength":2400,
			"byteOffset":7058028,
			"target":34962
		},
		{
			"buffer":0,
			"byteLength":2016,
			"byteOffset":7060428,
			"target":34963
		},
		{
			"buffer":0,
			"byteLength":7680,
			"byteOffset":7062444,
			"target":34962
		},
		{
			"buffer":0,
			"byteLength":7680,
			"byteOffset":7070124,
			"target":34962
		},
		{
			"buffer":0,
			"byteLength":5120,
			"byteOffset":7077804,
			"target":34962
		},
		{
			"buffer":0,
			"byteLength":7200,
			"byteOffset":7082924,
			"target":34963
		},
		{
			"buffer":0,
			"byteLength":17328,
			"byteOffset":7090124,
			"target":34962
		},
		{
			"buffer":0,
			"byteLength":17328,
			"byteOffset":7107452,
			"target":34962
		},
		{
			"buffer":0,
			"byteLength":11552,
			"byteOffset":7124780,
			"target":34962
		},
		{
			"buffer":0,
			"byteLength":15216,
			"byteOffset":7136332,
			"target":34963
		},
		{
			"buffer":0,
			"byteLength":168,
			"byteOffset":7151548,
			"target":34962
		},
		{
			"buffer":0,
			"byteLength":168,
			"byteOffset":7151716,
			"target":34962
		},
		{
			"buffer":0,
			"byteLength":112,
			"byteOffset":7151884,
			"target":34962
		},
		{
			"buffer":0,
			"byteLength":48,
			"byteOffset":7151996,
			"target":34963
		},
		{
			"buffer":0,
			"byteLength":620100,
			"byteOffset":7152044,
			"target":34962
		},
		{
			"buffer":0,
			"byteLength":620100,
			"byteOffset":7772144,
			"target":34962
		},
		{
			"buffer":0,
			"byteLength":413400,
			"byteOffset":8392244,
			"target":34962
		},
		{
			"buffer":0,
			"byteLength":386736,
			"byteOffset":8805644,
			"target":34963
		},
		{
			"buffer":0,
			"byteLength":114516,
			"byteOffset":9192380,
			"target":34962
		},
		{
			"buffer":0,
			"byteLength":114516,
			"byteOffset":9306896,
			"target":34962
		},
		{
			"buffer":0,
			"byteLength":76344,
			"byteOffset":9421412,
			"target":34962
		},
		{
			"buffer":0,
			"byteLength":88080,
			"byteOffset":9497756,
			"target":34963
		},
		{
			"buffer":0,
			"byteLength":173304,
			"byteOffset":9585836,
			"target":34962
		},
		{
			"buffer":0,
			"byteLength":173304,
			"byteOffset":9759140,
			"target":34962
		},
		{
			"buffer":0,
			"byteLength":115536,
			"byteOffset":9932444,
			"target":34962
		},
		{
			"buffer":0,
			"byteLength":156096,
			"byteOffset":10047980,
			"target":34963
		},
		{
			"buffer":0,
			"byteLength":258432,
			"byteOffset":10204076,
			"target":34962
		},
		{
			"buffer":0,
			"byteLength":258432,
			"byteOffset":10462508,
			"target":34962
		},
		{
			"buffer":0,
			"byteLength":172288,
			"byteOffset":10720940,
			"target":34962
		},
		{
			"buffer":0,
			"byteLength":256560,
			"byteOffset":10893228,
			"target":34963
		},
		{
			"buffer":0,
			"byteLength":18360,
			"byteOffset":11149788,
			"target":34962
		},
		{
			"buffer":0,
			"byteLength":18360,
			"byteOffset":11168148,
			"target":34962
		},
		{
			"buffer":0,
			"byteLength":12240,
			"byteOffset":11186508,
			"target":34962
		},
		{
			"buffer":0,
			"byteLength":11232,
			"byteOffset":11198748,
			"target":34963
		},
		{
			"buffer":0,
			"byteLength":9960,
			"byteOffset":11209980,
			"target":34962
		},
		{
			"buffer":0,
			"byteLength":9960,
			"byteOffset":11219940,
			"target":34962
		},
		{
			"buffer":0,
			"byteLength":6640,
			"byteOffset":11229900,
			"target":34962
		},
		{
			"buffer":0,
			"byteLength":6888,
			"byteOffset":11236540,
			"target":34963
		},
		{
			"buffer":0,
			"byteLength":118116,
			"byteOffset":11243428,
			"target":34962
		},
		{
			"buffer":0,
			"byteLength":118116,
			"byteOffset":11361544,
			"target":34962
		},
		{
			"buffer":0,
			"byteLength":78744,
			"byteOffset":11479660,
			"target":34962
		},
		{
			"buffer":0,
			"byteLength":88080,
			"byteOffset":11558404,
			"target":34963
		},
		{
			"buffer":0,
			"byteLength":173472,
			"byteOffset":11646484,
			"target":34962
		},
		{
			"buffer":0,
			"byteLength":173472,
			"byteOffset":11819956,
			"target":34962
		},
		{
			"buffer":0,
			"byteLength":115648,
			"byteOffset":11993428,
			"target":34962
		},
		{
			"buffer":0,
			"byteLength":156096,
			"byteOffset":12109076,
			"target":34963
		},
		{
			"buffer":0,
			"byteLength":258432,
			"byteOffset":12265172,
			"target":34962
		},
		{
			"buffer":0,
			"byteLength":258432,
			"byteOffset":12523604,
			"target":34962
		},
		{
			"buffer":0,
			"byteLength":172288,
			"byteOffset":12782036,
			"target":34962
		},
		{
			"buffer":0,
			"byteLength":18360,
			"byteOffset":12954324,
			"target":34962
		},
		{
			"buffer":0,
			"byteLength":18360,
			"byteOffset":12972684,
			"target":34962
		},
		{
			"buffer":0,
			"byteLength":12240,
			"byteOffset":12991044,
			"target":34962
		},
		{
			"buffer":0,
			"byteLength":11232,
			"byteOffset":13003284,
			"target":34963
		},
		{
			"buffer":0,
			"byteLength":9960,
			"byteOffset":13014516,
			"target":34962
		},
		{
			"buffer":0,
			"byteLength":9960,
			"byteOffset":13024476,
			"target":34962
		},
		{
			"buffer":0,
			"byteLength":6640,
			"byteOffset":13034436,
			"target":34962
		},
		{
			"buffer":0,
			"byteLength":1200,
			"byteOffset":13041076,
			"target":34962
		},
		{
			"buffer":0,
			"byteLength":1200,
			"byteOffset":13042276,
			"target":34962
		},
		{
			"buffer":0,
			"byteLength":800,
			"byteOffset":13043476,
			"target":34962
		},
		{
			"buffer":0,
			"byteLength":864,
			"byteOffset":13044276,
			"target":34963
		},
		{
			"buffer":0,
			"byteLength":3648,
			"byteOffset":13045140,
			"target":34962
		},
		{
			"buffer":0,
			"byteLength":3648,
			"byteOffset":13048788,
			"target":34962
		},
		{
			"buffer":0,
			"byteLength":2432,
			"byteOffset":13052436,
			"target":34962
		},
		{
			"buffer":0,
			"byteLength":1104,
			"byteOffset":13054868,
			"target":34963
		},
		{
			"buffer":0,
			"byteLength":620100,
			"byteOffset":13055972,
			"target":34962
		},
		{
			"buffer":0,
			"byteLength":620100,
			"byteOffset":13676072,
			"target":34962
		},
		{
			"buffer":0,
			"byteLength":413400,
			"byteOffset":14296172,
			"target":34962
		},
		{
			"buffer":0,
			"byteLength":5496,
			"byteOffset":14709572,
			"target":34962
		},
		{
			"buffer":0,
			"byteLength":5496,
			"byteOffset":14715068,
			"target":34962
		},
		{
			"buffer":0,
			"byteLength":3664,
			"byteOffset":14720564,
			"target":34962
		},
		{
			"buffer":0,
			"byteLength":5472,
			"byteOffset":14724228,
			"target":34963
		}
	],
	"samplers":[
		{
			"magFilter":9729,
			"minFilter":9987
		}
	],
	"buffers":[
		{
			"byteLength":14729700,
			"uri":"Bmw%232facelift.bin"
		}
	]
}
